<?xml version="1.0" encoding="UTF-8" standalone="no"?>
<!-- Created with Inkscape (http://www.inkscape.org/) -->
<svg xmlns:rdf="http://www.w3.org/1999/02/22-rdf-syntax-ns#" xmlns="http://www.w3.org/2000/svg" xmlns:cc="http://web.resource.org/cc/" xmlns:dc="http://purl.org/dc/elements/1.1/" xmlns:svg="http://www.w3.org/2000/svg" xmlns:inkscape="http://www.inkscape.org/namespaces/inkscape" xmlns:sodipodi="http://sodipodi.sourceforge.net/DTD/sodipodi-0.dtd" xmlns:ns1="http://sozi.baierouge.fr" xmlns:xlink="http://www.w3.org/1999/xlink" id="svg2" viewBox="0 0 720 720" version="1.1" inkscape:version="0.91 r13725">
  <g id="layer1" transform="translate(0 -332.36)">
    <g id="g3273" transform="matrix(1.1429 0 0 1.1429 -51.429 -98.909)">
      <g id="g3275">
        <path id="path3277" style="fill:#ff0000" d="m360 377.36 27.454 1.1987l-27.45 313.8v-315z"/>
        <path id="path3279" style="fill:#ff8000" d="m387.45 378.56 27.245 3.5869-54.699 310.21 27.454-313.8z"/>
        <path id="path3281" style="fill:#ffff00" d="m414.7 382.15 26.829 5.9478-81.528 304.27 54.699-310.21z"/>
        <path id="path3283" style="fill:#80ff00" d="m441.53 388.1 26.208 8.2635-107.74 296 81.528-304.27z"/>
        <path id="path3285" style="fill:#00ff00" d="m467.74 396.36 25.388 10.516-133.12 285.49 107.74-296z"/>
        <path id="path3287" style="fill:#00ff80" d="m493.12 406.88 24.38 12.68-157.5 272.8 133.12-285.48z"/>
        <path id="path3289" style="fill:#00ffff" d="m517.5 419.56 23.177 14.765-180.68 258.03 157.5-272.8z"/>
        <path id="path3291" style="fill:#0080ff" d="m540.68 434.33 21.8 16.73-202.48 241.3 180.68-258.03z"/>
        <path id="path3293" style="fill:#0000ff" d="m562.48 451.06 20.26 18.56-222.74 222.74 202.48-241.3z"/>
        <path id="path3295" style="fill:#8000ff" d="m582.74 469.62 18.56 20.26-241.3 202.48 222.74-222.74z"/>
        <path id="path3297" style="fill:#ff00ff" d="m601.3 489.88 16.73 21.81-258.03 180.67 241.3-202.48z"/>
        <path id="path3299" style="fill:#ff0080" d="m618.03 511.69 14.765 23.177-272.8 157.5 258.03-180.68z"/>
      </g>
      <g id="g3301" transform="matrix(.5 .86603 -.86603 .5 779.6 34.412)">
        <path id="path3303" style="fill:#ff0000" d="m360 377.36 27.454 1.1987l-27.45 313.8v-315z"/>
        <path id="path3305" style="fill:#ff8000" d="m387.45 378.56 27.245 3.5869-54.699 310.21 27.454-313.8z"/>
        <path id="path3307" style="fill:#ffff00" d="m414.7 382.15 26.829 5.9478-81.528 304.27 54.699-310.21z"/>
        <path id="path3309" style="fill:#80ff00" d="m441.53 388.1 26.208 8.2635-107.74 296 81.528-304.27z"/>
        <path id="path3311" style="fill:#00ff00" d="m467.74 396.36 25.388 10.516-133.12 285.49 107.74-296z"/>
        <path id="path3313" style="fill:#00ff80" d="m493.12 406.88 24.38 12.68-157.5 272.8 133.12-285.48z"/>
        <path id="path3315" style="fill:#00ffff" d="m517.5 419.56 23.177 14.765-180.68 258.03 157.5-272.8z"/>
        <path id="path3317" style="fill:#0080ff" d="m540.68 434.33 21.8 16.73-202.48 241.3 180.68-258.03z"/>
        <path id="path3319" style="fill:#0000ff" d="m562.48 451.06 20.26 18.56-222.74 222.74 202.48-241.3z"/>
        <path id="path3321" style="fill:#8000ff" d="m582.74 469.62 18.56 20.26-241.3 202.48 222.74-222.74z"/>
        <path id="path3323" style="fill:#ff00ff" d="m601.3 489.88 16.73 21.81-258.03 180.67 241.3-202.48z"/>
        <path id="path3325" style="fill:#ff0080" d="m618.03 511.69 14.765 23.177-272.8 157.5 258.03-180.68z"/>
      </g>
      <g id="g3327" transform="matrix(-0.5 .86603 -.86603 -0.5 1139.6 726.77)">
        <path id="path3329" style="fill:#ff0000" d="m360 377.36 27.454 1.1987l-27.45 313.8v-315z"/>
        <path id="path3331" style="fill:#ff8000" d="m387.45 378.56 27.245 3.5869-54.699 310.21 27.454-313.8z"/>
        <path id="path3333" style="fill:#ffff00" d="m414.7 382.15 26.829 5.9478-81.528 304.27 54.699-310.21z"/>
        <path id="path3335" style="fill:#80ff00" d="m441.53 388.1 26.208 8.2635-107.74 296 81.528-304.27z"/>
        <path id="path3337" style="fill:#00ff00" d="m467.74 396.36 25.388 10.516-133.12 285.49 107.74-296z"/>
        <path id="path3339" style="fill:#00ff80" d="m493.12 406.88 24.38 12.68-157.5 272.8 133.12-285.48z"/>
        <path id="path3341" style="fill:#00ffff" d="m517.5 419.56 23.177 14.765-180.68 258.03 157.5-272.8z"/>
        <path id="path3343" style="fill:#0080ff" d="m540.68 434.33 21.8 16.73-202.48 241.3 180.68-258.03z"/>
        <path id="path3345" style="fill:#0000ff" d="m562.48 451.06 20.26 18.56-222.74 222.74 202.48-241.3z"/>
        <path id="path3347" style="fill:#8000ff" d="m582.74 469.62 18.56 20.26-241.3 202.48 222.74-222.74z"/>
        <path id="path3349" style="fill:#ff00ff" d="m601.3 489.88 16.73 21.81-258.03 180.67 241.3-202.48z"/>
        <path id="path3351" style="fill:#ff0080" d="m618.03 511.69 14.765 23.177-272.8 157.5 258.03-180.68z"/>
      </g>
      <g id="g3353" transform="matrix(-1 2.3291e-16 -2.3291e-16 -1 720 1384.7)">
        <path id="path3355" style="fill:#ff0000" d="m360 377.36 27.454 1.1987l-27.45 313.8v-315z"/>
        <path id="path3357" style="fill:#ff8000" d="m387.45 378.56 27.245 3.5869-54.699 310.21 27.454-313.8z"/>
        <path id="path3359" style="fill:#ffff00" d="m414.7 382.15 26.829 5.9478-81.528 304.27 54.699-310.21z"/>
        <path id="path3361" style="fill:#80ff00" d="m441.53 388.1 26.208 8.2635-107.74 296 81.528-304.27z"/>
        <path id="path3363" style="fill:#00ff00" d="m467.74 396.36 25.388 10.516-133.12 285.49 107.74-296z"/>
        <path id="path3365" style="fill:#00ff80" d="m493.12 406.88 24.38 12.68-157.5 272.8 133.12-285.48z"/>
        <path id="path3367" style="fill:#00ffff" d="m517.5 419.56 23.177 14.765-180.68 258.03 157.5-272.8z"/>
        <path id="path3369" style="fill:#0080ff" d="m540.68 434.33 21.8 16.73-202.48 241.3 180.68-258.03z"/>
        <path id="path3371" style="fill:#0000ff" d="m562.48 451.06 20.26 18.56-222.74 222.74 202.48-241.3z"/>
        <path id="path3373" style="fill:#8000ff" d="m582.74 469.62 18.56 20.26-241.3 202.48 222.74-222.74z"/>
        <path id="path3375" style="fill:#ff00ff" d="m601.3 489.88 16.73 21.81-258.03 180.67 241.3-202.48z"/>
        <path id="path3377" style="fill:#ff0080" d="m618.03 511.69 14.765 23.177-272.8 157.5 258.03-180.68z"/>
      </g>
      <g id="g3379" transform="matrix(-.5 -.86603 .86603 -.5 -59.603 1350.3)">
        <path id="path3381" style="fill:#ff0000" d="m360 377.36 27.454 1.1987l-27.45 313.8v-315z"/>
        <path id="path3383" style="fill:#ff8000" d="m387.45 378.56 27.245 3.5869-54.699 310.21 27.454-313.8z"/>
        <path id="path3385" style="fill:#ffff00" d="m414.7 382.15 26.829 5.9478-81.528 304.27 54.699-310.21z"/>
        <path id="path3387" style="fill:#80ff00" d="m441.53 388.1 26.208 8.2635-107.74 296 81.528-304.27z"/>
        <path id="path3389" style="fill:#00ff00" d="m467.74 396.36 25.388 10.516-133.12 285.49 107.74-296z"/>
        <path id="path3391" style="fill:#00ff80" d="m493.12 406.88 24.38 12.68-157.5 272.8 133.12-285.48z"/>
        <path id="path3393" style="fill:#00ffff" d="m517.5 419.56 23.177 14.765-180.68 258.03 157.5-272.8z"/>
        <path id="path3395" style="fill:#0080ff" d="m540.68 434.33 21.8 16.73-202.48 241.3 180.68-258.03z"/>
        <path id="path3397" style="fill:#0000ff" d="m562.48 451.06 20.26 18.56-222.74 222.74 202.48-241.3z"/>
        <path id="path3399" style="fill:#8000ff" d="m582.74 469.62 18.56 20.26-241.3 202.48 222.74-222.74z"/>
        <path id="path3401" style="fill:#ff00ff" d="m601.3 489.88 16.73 21.81-258.03 180.67 241.3-202.48z"/>
        <path id="path3403" style="fill:#ff0080" d="m618.03 511.69 14.765 23.177-272.8 157.5 258.03-180.68z"/>
      </g>
      <g id="g3405" transform="matrix(0.5 -.86603 .86603 0.5 -419.6 657.95)">
        <path id="path3407" style="fill:#ff0000" d="m360 377.36 27.454 1.1987l-27.45 313.8v-315z"/>
        <path id="path3409" style="fill:#ff8000" d="m387.45 378.56 27.245 3.5869-54.699 310.21 27.454-313.8z"/>
        <path id="path3411" style="fill:#ffff00" d="m414.7 382.15 26.829 5.9478-81.528 304.27 54.699-310.21z"/>
        <path id="path3413" style="fill:#80ff00" d="m441.53 388.1 26.208 8.2635-107.74 296 81.528-304.27z"/>
        <path id="path3415" style="fill:#00ff00" d="m467.74 396.36 25.388 10.516-133.12 285.49 107.74-296z"/>
        <path id="path3417" style="fill:#00ff80" d="m493.12 406.88 24.38 12.68-157.5 272.8 133.12-285.48z"/>
        <path id="path3419" style="fill:#00ffff" d="m517.5 419.56 23.177 14.765-180.68 258.03 157.5-272.8z"/>
        <path id="path3421" style="fill:#0080ff" d="m540.68 434.33 21.8 16.73-202.48 241.3 180.68-258.03z"/>
        <path id="path3423" style="fill:#0000ff" d="m562.48 451.06 20.26 18.56-222.74 222.74 202.48-241.3z"/>
        <path id="path3425" style="fill:#8000ff" d="m582.74 469.62 18.56 20.26-241.3 202.48 222.74-222.74z"/>
        <path id="path3427" style="fill:#ff00ff" d="m601.3 489.88 16.73 21.81-258.03 180.67 241.3-202.48z"/>
        <path id="path3429" style="fill:#ff0080" d="m618.03 511.69 14.765 23.177-272.8 157.5 258.03-180.68z"/>
      </g>
    </g>
    <g id="g2993">
      <g id="g3581">
        <path id="path4482" style="fill:#000000" d="m360 377.36 27.454 1.1987l-27.45 313.8v-315z"/>
        <path id="path4484" style="fill:#ffffff" d="m387.45 378.56 27.245 3.5869-54.699 310.21 27.454-313.8z"/>
        <path id="path4486" style="fill:#000000" d="m414.7 382.15 26.829 5.9478-81.528 304.27 54.699-310.21z"/>
        <path id="path4488" style="fill:#ffffff" d="m441.53 388.1 26.208 8.2635-107.74 296 81.528-304.27z"/>
        <path id="path4490" style="fill:#000000" d="m467.74 396.36 25.388 10.516-133.12 285.49 107.74-296z"/>
        <path id="path4492" style="fill:#ffffff" d="m493.12 406.88 24.38 12.68-157.5 272.8 133.12-285.48z"/>
        <path id="path4537" style="fill:#000000" d="m517.5 419.56 23.177 14.765-180.68 258.03 157.5-272.8z"/>
        <path id="path4539" style="fill:#ffffff" d="m540.68 434.33 21.8 16.73-202.48 241.3 180.68-258.03z"/>
        <path id="path4541" style="fill:#000000" d="m562.48 451.06 20.26 18.56-222.74 222.74 202.48-241.3z"/>
        <path id="path4543" style="fill:#ffffff" d="m582.74 469.62 18.56 20.26-241.3 202.48 222.74-222.74z"/>
        <path id="path4545" style="fill:#000000" d="m601.3 489.88 16.73 21.81-258.03 180.67 241.3-202.48z"/>
        <path id="path4547" style="fill:#ffffff" d="m618.03 511.69 14.765 23.177-272.8 157.5 258.03-180.68z"/>
      </g>
      <g id="g3595" transform="matrix(.5 .86603 -.86603 .5 779.6 34.412)">
        <path id="path3597" style="fill:#000000" d="m360 377.36 27.454 1.1987l-27.45 313.8v-315z"/>
        <path id="path3599" style="fill:#ffffff" d="m387.45 378.56 27.245 3.5869-54.699 310.21 27.454-313.8z"/>
        <path id="path3601" style="fill:#000000" d="m414.7 382.15 26.829 5.9478-81.528 304.27 54.699-310.21z"/>
        <path id="path3603" style="fill:#ffffff" d="m441.53 388.1 26.208 8.2635-107.74 296 81.528-304.27z"/>
        <path id="path3605" style="fill:#000000" d="m467.74 396.36 25.388 10.516-133.12 285.49 107.74-296z"/>
        <path id="path3607" style="fill:#ffffff" d="m493.12 406.88 24.38 12.68-157.5 272.8 133.12-285.48z"/>
        <path id="path3609" style="fill:#000000" d="m517.5 419.56 23.177 14.765-180.68 258.03 157.5-272.8z"/>
        <path id="path3611" style="fill:#ffffff" d="m540.68 434.33 21.8 16.73-202.48 241.3 180.68-258.03z"/>
        <path id="path3613" style="fill:#000000" d="m562.48 451.06 20.26 18.56-222.74 222.74 202.48-241.3z"/>
        <path id="path3615" style="fill:#ffffff" d="m582.74 469.62 18.56 20.26-241.3 202.48 222.74-222.74z"/>
        <path id="path3617" style="fill:#000000" d="m601.3 489.88 16.73 21.81-258.03 180.67 241.3-202.48z"/>
        <path id="path3619" style="fill:#ffffff" d="m618.03 511.69 14.765 23.177-272.8 157.5 258.03-180.68z"/>
      </g>
      <g id="g3621" transform="matrix(-.5 .86603 -.86603 -.5 1139.6 726.77)">
        <path id="path3623" style="fill:#000000" d="m360 377.36 27.454 1.1987l-27.45 313.8v-315z"/>
        <path id="path3625" style="fill:#ffffff" d="m387.45 378.56 27.245 3.5869-54.699 310.21 27.454-313.8z"/>
        <path id="path3627" style="fill:#000000" d="m414.7 382.15 26.829 5.9478-81.528 304.27 54.699-310.21z"/>
        <path id="path3629" style="fill:#ffffff" d="m441.53 388.1 26.208 8.2635-107.74 296 81.528-304.27z"/>
        <path id="path3631" style="fill:#000000" d="m467.74 396.36 25.388 10.516-133.12 285.49 107.74-296z"/>
        <path id="path3633" style="fill:#ffffff" d="m493.12 406.88 24.38 12.68-157.5 272.8 133.12-285.48z"/>
        <path id="path3635" style="fill:#000000" d="m517.5 419.56 23.177 14.765-180.68 258.03 157.5-272.8z"/>
        <path id="path3637" style="fill:#ffffff" d="m540.68 434.33 21.8 16.73-202.48 241.3 180.68-258.03z"/>
        <path id="path3639" style="fill:#000000" d="m562.48 451.06 20.26 18.56-222.74 222.74 202.48-241.3z"/>
        <path id="path3641" style="fill:#ffffff" d="m582.74 469.62 18.56 20.26-241.3 202.48 222.74-222.74z"/>
        <path id="path3643" style="fill:#000000" d="m601.3 489.88 16.73 21.81-258.03 180.67 241.3-202.48z"/>
        <path id="path3645" style="fill:#ffffff" d="m618.03 511.69 14.765 23.177-272.8 157.5 258.03-180.68z"/>
      </g>
      <g id="g3647" transform="matrix(-1 1.5165e-16 -1.5165e-16 -1 720 1384.7)">
        <path id="path3649" style="fill:#000000" d="m360 377.36 27.454 1.1987l-27.45 313.8v-315z"/>
        <path id="path3651" style="fill:#ffffff" d="m387.45 378.56 27.245 3.5869-54.699 310.21 27.454-313.8z"/>
        <path id="path3653" style="fill:#000000" d="m414.7 382.15 26.829 5.9478-81.528 304.27 54.699-310.21z"/>
        <path id="path3655" style="fill:#ffffff" d="m441.53 388.1 26.208 8.2635-107.74 296 81.528-304.27z"/>
        <path id="path3657" style="fill:#000000" d="m467.74 396.36 25.388 10.516-133.12 285.49 107.74-296z"/>
        <path id="path3659" style="fill:#ffffff" d="m493.12 406.88 24.38 12.68-157.5 272.8 133.12-285.48z"/>
        <path id="path3661" style="fill:#000000" d="m517.5 419.56 23.177 14.765-180.68 258.03 157.5-272.8z"/>
        <path id="path3663" style="fill:#ffffff" d="m540.68 434.33 21.8 16.73-202.48 241.3 180.68-258.03z"/>
        <path id="path3665" style="fill:#000000" d="m562.48 451.06 20.26 18.56-222.74 222.74 202.48-241.3z"/>
        <path id="path3667" style="fill:#ffffff" d="m582.74 469.62 18.56 20.26-241.3 202.48 222.74-222.74z"/>
        <path id="path3669" style="fill:#000000" d="m601.3 489.88 16.73 21.81-258.03 180.67 241.3-202.48z"/>
        <path id="path3671" style="fill:#ffffff" d="m618.03 511.69 14.765 23.177-272.8 157.5 258.03-180.68z"/>
      </g>
      <g id="g3673" transform="matrix(-.5 -.86603 .86603 -.5 -59.603 1350.3)">
        <path id="path3675" style="fill:#000000" d="m360 377.36 27.454 1.1987l-27.45 313.8v-315z"/>
        <path id="path3677" style="fill:#ffffff" d="m387.45 378.56 27.245 3.5869-54.699 310.21 27.454-313.8z"/>
        <path id="path3679" style="fill:#000000" d="m414.7 382.15 26.829 5.9478-81.528 304.27 54.699-310.21z"/>
        <path id="path3681" style="fill:#ffffff" d="m441.53 388.1 26.208 8.2635-107.74 296 81.528-304.27z"/>
        <path id="path3683" style="fill:#000000" d="m467.74 396.36 25.388 10.516-133.12 285.49 107.74-296z"/>
        <path id="path3685" style="fill:#ffffff" d="m493.12 406.88 24.38 12.68-157.5 272.8 133.12-285.48z"/>
        <path id="path3687" style="fill:#000000" d="m517.5 419.56 23.177 14.765-180.68 258.03 157.5-272.8z"/>
        <path id="path3689" style="fill:#ffffff" d="m540.68 434.33 21.8 16.73-202.48 241.3 180.68-258.03z"/>
        <path id="path3691" style="fill:#000000" d="m562.48 451.06 20.26 18.56-222.74 222.74 202.48-241.3z"/>
        <path id="path3693" style="fill:#ffffff" d="m582.74 469.62 18.56 20.26-241.3 202.48 222.74-222.74z"/>
        <path id="path3695" style="fill:#000000" d="m601.3 489.88 16.73 21.81-258.03 180.67 241.3-202.48z"/>
        <path id="path3697" style="fill:#ffffff" d="m618.03 511.69 14.765 23.177-272.8 157.5 258.03-180.68z"/>
      </g>
      <g id="g3699" transform="matrix(0.5 -.86603 .86603 0.5 -419.6 657.95)">
        <path id="path3701" style="fill:#000000" d="m360 377.36 27.454 1.1987l-27.45 313.8v-315z"/>
        <path id="path3703" style="fill:#ffffff" d="m387.45 378.56 27.245 3.5869-54.699 310.21 27.454-313.8z"/>
        <path id="path3705" style="fill:#000000" d="m414.7 382.15 26.829 5.9478-81.528 304.27 54.699-310.21z"/>
        <path id="path3707" style="fill:#ffffff" d="m441.53 388.1 26.208 8.2635-107.74 296 81.528-304.27z"/>
        <path id="path3709" style="fill:#000000" d="m467.74 396.36 25.388 10.516-133.12 285.49 107.74-296z"/>
        <path id="path3711" style="fill:#ffffff" d="m493.12 406.88 24.38 12.68-157.5 272.8 133.12-285.48z"/>
        <path id="path3713" style="fill:#000000" d="m517.5 419.56 23.177 14.765-180.68 258.03 157.5-272.8z"/>
        <path id="path3715" style="fill:#ffffff" d="m540.68 434.33 21.8 16.73-202.48 241.3 180.68-258.03z"/>
        <path id="path3717" style="fill:#000000" d="m562.48 451.06 20.26 18.56-222.74 222.74 202.48-241.3z"/>
        <path id="path3719" style="fill:#ffffff" d="m582.74 469.62 18.56 20.26-241.3 202.48 222.74-222.74z"/>
        <path id="path3721" style="fill:#000000" d="m601.3 489.88 16.73 21.81-258.03 180.67 241.3-202.48z"/>
        <path id="path3723" style="fill:#ffffff" d="m618.03 511.69 14.765 23.177-272.8 157.5 258.03-180.68z"/>
      </g>
    </g>
    <g id="g3073" transform="matrix(.85714 0 0 .85714 51.429 98.909)">
      <g id="g3075">
        <path id="path3077" style="fill:#ff0000" d="m360 377.36 27.454 1.1987l-27.45 313.8v-315z"/>
        <path id="path3079" style="fill:#ff8000" d="m387.45 378.56 27.245 3.5869-54.699 310.21 27.454-313.8z"/>
        <path id="path3081" style="fill:#ffff00" d="m414.7 382.15 26.829 5.9478-81.528 304.27 54.699-310.21z"/>
        <path id="path3083" style="fill:#80ff00" d="m441.53 388.1 26.208 8.2635-107.74 296 81.528-304.27z"/>
        <path id="path3085" style="fill:#00ff00" d="m467.74 396.36 25.388 10.516-133.12 285.49 107.74-296z"/>
        <path id="path3087" style="fill:#00ff80" d="m493.12 406.88 24.38 12.68-157.5 272.8 133.12-285.48z"/>
        <path id="path3089" style="fill:#00ffff" d="m517.5 419.56 23.177 14.765-180.68 258.03 157.5-272.8z"/>
        <path id="path3091" style="fill:#0080ff" d="m540.68 434.33 21.8 16.73-202.48 241.3 180.68-258.03z"/>
        <path id="path3093" style="fill:#0000ff" d="m562.48 451.06 20.26 18.56-222.74 222.74 202.48-241.3z"/>
        <path id="path3095" style="fill:#8000ff" d="m582.74 469.62 18.56 20.26-241.3 202.48 222.74-222.74z"/>
        <path id="path3097" style="fill:#ff00ff" d="m601.3 489.88 16.73 21.81-258.03 180.67 241.3-202.48z"/>
        <path id="path3099" style="fill:#ff0080" d="m618.03 511.69 14.765 23.177-272.8 157.5 258.03-180.68z"/>
      </g>
      <g id="g3101" transform="matrix(.5 .86603 -.86603 .5 779.6 34.412)">
        <path id="path3103" style="fill:#ff0000" d="m360 377.36 27.454 1.1987l-27.45 313.8v-315z"/>
        <path id="path3105" style="fill:#ff8000" d="m387.45 378.56 27.245 3.5869-54.699 310.21 27.454-313.8z"/>
        <path id="path3107" style="fill:#ffff00" d="m414.7 382.15 26.829 5.9478-81.528 304.27 54.699-310.21z"/>
        <path id="path3109" style="fill:#80ff00" d="m441.53 388.1 26.208 8.2635-107.74 296 81.528-304.27z"/>
        <path id="path3111" style="fill:#00ff00" d="m467.74 396.36 25.388 10.516-133.12 285.49 107.74-296z"/>
        <path id="path3113" style="fill:#00ff80" d="m493.12 406.88 24.38 12.68-157.5 272.8 133.12-285.48z"/>
        <path id="path3115" style="fill:#00ffff" d="m517.5 419.56 23.177 14.765-180.68 258.03 157.5-272.8z"/>
        <path id="path3117" style="fill:#0080ff" d="m540.68 434.33 21.8 16.73-202.48 241.3 180.68-258.03z"/>
        <path id="path3119" style="fill:#0000ff" d="m562.48 451.06 20.26 18.56-222.74 222.74 202.48-241.3z"/>
        <path id="path3121" style="fill:#8000ff" d="m582.74 469.62 18.56 20.26-241.3 202.48 222.74-222.74z"/>
        <path id="path3123" style="fill:#ff00ff" d="m601.3 489.88 16.73 21.81-258.03 180.67 241.3-202.48z"/>
        <path id="path3125" style="fill:#ff0080" d="m618.03 511.69 14.765 23.177-272.8 157.5 258.03-180.68z"/>
      </g>
      <g id="g3127" transform="matrix(-0.5 .86603 -.86603 -0.5 1139.6 726.77)">
        <path id="path3129" style="fill:#ff0000" d="m360 377.36 27.454 1.1987l-27.45 313.8v-315z"/>
        <path id="path3131" style="fill:#ff8000" d="m387.45 378.56 27.245 3.5869-54.699 310.21 27.454-313.8z"/>
        <path id="path3133" style="fill:#ffff00" d="m414.7 382.15 26.829 5.9478-81.528 304.27 54.699-310.21z"/>
        <path id="path3135" style="fill:#80ff00" d="m441.53 388.1 26.208 8.2635-107.74 296 81.528-304.27z"/>
        <path id="path3137" style="fill:#00ff00" d="m467.74 396.36 25.388 10.516-133.12 285.49 107.74-296z"/>
        <path id="path3139" style="fill:#00ff80" d="m493.12 406.88 24.38 12.68-157.5 272.8 133.12-285.48z"/>
        <path id="path3141" style="fill:#00ffff" d="m517.5 419.56 23.177 14.765-180.68 258.03 157.5-272.8z"/>
        <path id="path3143" style="fill:#0080ff" d="m540.68 434.33 21.8 16.73-202.48 241.3 180.68-258.03z"/>
        <path id="path3145" style="fill:#0000ff" d="m562.48 451.06 20.26 18.56-222.74 222.74 202.48-241.3z"/>
        <path id="path3147" style="fill:#8000ff" d="m582.74 469.62 18.56 20.26-241.3 202.48 222.74-222.74z"/>
        <path id="path3149" style="fill:#ff00ff" d="m601.3 489.88 16.73 21.81-258.03 180.67 241.3-202.48z"/>
        <path id="path3151" style="fill:#ff0080" d="m618.03 511.69 14.765 23.177-272.8 157.5 258.03-180.68z"/>
      </g>
      <g id="g3153" transform="matrix(-1 2.3291e-16 -2.3291e-16 -1 720 1384.7)">
        <path id="path3155" style="fill:#ff0000" d="m360 377.36 27.454 1.1987l-27.45 313.8v-315z"/>
        <path id="path3157" style="fill:#ff8000" d="m387.45 378.56 27.245 3.5869-54.699 310.21 27.454-313.8z"/>
        <path id="path3159" style="fill:#ffff00" d="m414.7 382.15 26.829 5.9478-81.528 304.27 54.699-310.21z"/>
        <path id="path3161" style="fill:#80ff00" d="m441.53 388.1 26.208 8.2635-107.74 296 81.528-304.27z"/>
        <path id="path3163" style="fill:#00ff00" d="m467.74 396.36 25.388 10.516-133.12 285.49 107.74-296z"/>
        <path id="path3165" style="fill:#00ff80" d="m493.12 406.88 24.38 12.68-157.5 272.8 133.12-285.48z"/>
        <path id="path3167" style="fill:#00ffff" d="m517.5 419.56 23.177 14.765-180.68 258.03 157.5-272.8z"/>
        <path id="path3169" style="fill:#0080ff" d="m540.68 434.33 21.8 16.73-202.48 241.3 180.68-258.03z"/>
        <path id="path3171" style="fill:#0000ff" d="m562.48 451.06 20.26 18.56-222.74 222.74 202.48-241.3z"/>
        <path id="path3173" style="fill:#8000ff" d="m582.74 469.62 18.56 20.26-241.3 202.48 222.74-222.74z"/>
        <path id="path3175" style="fill:#ff00ff" d="m601.3 489.88 16.73 21.81-258.03 180.67 241.3-202.48z"/>
        <path id="path3177" style="fill:#ff0080" d="m618.03 511.69 14.765 23.177-272.8 157.5 258.03-180.68z"/>
      </g>
      <g id="g3179" transform="matrix(-.5 -.86603 .86603 -.5 -59.603 1350.3)">
        <path id="path3181" style="fill:#ff0000" d="m360 377.36 27.454 1.1987l-27.45 313.8v-315z"/>
        <path id="path3183" style="fill:#ff8000" d="m387.45 378.56 27.245 3.5869-54.699 310.21 27.454-313.8z"/>
        <path id="path3185" style="fill:#ffff00" d="m414.7 382.15 26.829 5.9478-81.528 304.27 54.699-310.21z"/>
        <path id="path3187" style="fill:#80ff00" d="m441.53 388.1 26.208 8.2635-107.74 296 81.528-304.27z"/>
        <path id="path3189" style="fill:#00ff00" d="m467.74 396.36 25.388 10.516-133.12 285.49 107.74-296z"/>
        <path id="path3191" style="fill:#00ff80" d="m493.12 406.88 24.38 12.68-157.5 272.8 133.12-285.48z"/>
        <path id="path3193" style="fill:#00ffff" d="m517.5 419.56 23.177 14.765-180.68 258.03 157.5-272.8z"/>
        <path id="path3195" style="fill:#0080ff" d="m540.68 434.33 21.8 16.73-202.48 241.3 180.68-258.03z"/>
        <path id="path3197" style="fill:#0000ff" d="m562.48 451.06 20.26 18.56-222.74 222.74 202.48-241.3z"/>
        <path id="path3199" style="fill:#8000ff" d="m582.74 469.62 18.56 20.26-241.3 202.48 222.74-222.74z"/>
        <path id="path3201" style="fill:#ff00ff" d="m601.3 489.88 16.73 21.81-258.03 180.67 241.3-202.48z"/>
        <path id="path3203" style="fill:#ff0080" d="m618.03 511.69 14.765 23.177-272.8 157.5 258.03-180.68z"/>
      </g>
      <g id="g3205" transform="matrix(0.5 -.86603 .86603 0.5 -419.6 657.95)">
        <path id="path3207" style="fill:#ff0000" d="m360 377.36 27.454 1.1987l-27.45 313.8v-315z"/>
        <path id="path3209" style="fill:#ff8000" d="m387.45 378.56 27.245 3.5869-54.699 310.21 27.454-313.8z"/>
        <path id="path3211" style="fill:#ffff00" d="m414.7 382.15 26.829 5.9478-81.528 304.27 54.699-310.21z"/>
        <path id="path3213" style="fill:#80ff00" d="m441.53 388.1 26.208 8.2635-107.74 296 81.528-304.27z"/>
        <path id="path3215" style="fill:#00ff00" d="m467.74 396.36 25.388 10.516-133.12 285.49 107.74-296z"/>
        <path id="path3217" style="fill:#00ff80" d="m493.12 406.88 24.38 12.68-157.5 272.8 133.12-285.48z"/>
        <path id="path3219" style="fill:#00ffff" d="m517.5 419.56 23.177 14.765-180.68 258.03 157.5-272.8z"/>
        <path id="path3221" style="fill:#0080ff" d="m540.68 434.33 21.8 16.73-202.48 241.3 180.68-258.03z"/>
        <path id="path3223" style="fill:#0000ff" d="m562.48 451.06 20.26 18.56-222.74 222.74 202.48-241.3z"/>
        <path id="path3225" style="fill:#8000ff" d="m582.74 469.62 18.56 20.26-241.3 202.48 222.74-222.74z"/>
        <path id="path3227" style="fill:#ff00ff" d="m601.3 489.88 16.73 21.81-258.03 180.67 241.3-202.48z"/>
        <path id="path3229" style="fill:#ff0080" d="m618.03 511.69 14.765 23.177-272.8 157.5 258.03-180.68z"/>
      </g>
    </g>
    <g id="g3231" transform="matrix(.71429 0 0 .71429 102.86 197.82)">
      <g id="g3233">
        <path id="path3235" style="fill:#000000" d="m360 377.36 27.454 1.1987l-27.45 313.8v-315z"/>
        <path id="path3237" style="fill:#ffffff" d="m387.45 378.56 27.245 3.5869-54.699 310.21 27.454-313.8z"/>
        <path id="path3239" style="fill:#000000" d="m414.7 382.15 26.829 5.9478-81.528 304.27 54.699-310.21z"/>
        <path id="path3241" style="fill:#ffffff" d="m441.53 388.1 26.208 8.2635-107.74 296 81.528-304.27z"/>
        <path id="path3243" style="fill:#000000" d="m467.74 396.36 25.388 10.516-133.12 285.49 107.74-296z"/>
        <path id="path3245" style="fill:#ffffff" d="m493.12 406.88 24.38 12.68-157.5 272.8 133.12-285.48z"/>
        <path id="path3247" style="fill:#000000" d="m517.5 419.56 23.177 14.765-180.68 258.03 157.5-272.8z"/>
        <path id="path3249" style="fill:#ffffff" d="m540.68 434.33 21.8 16.73-202.48 241.3 180.68-258.03z"/>
        <path id="path3251" style="fill:#000000" d="m562.48 451.06 20.26 18.56-222.74 222.74 202.48-241.3z"/>
        <path id="path3253" style="fill:#ffffff" d="m582.74 469.62 18.56 20.26-241.3 202.48 222.74-222.74z"/>
        <path id="path3255" style="fill:#000000" d="m601.3 489.88 16.73 21.81-258.03 180.67 241.3-202.48z"/>
        <path id="path3257" style="fill:#ffffff" d="m618.03 511.69 14.765 23.177-272.8 157.5 258.03-180.68z"/>
      </g>
      <g id="g3259" transform="matrix(.5 .86603 -.86603 .5 779.6 34.412)">
        <path id="path3261" style="fill:#000000" d="m360 377.36 27.454 1.1987l-27.45 313.8v-315z"/>
        <path id="path3263" style="fill:#ffffff" d="m387.45 378.56 27.245 3.5869-54.699 310.21 27.454-313.8z"/>
        <path id="path3265" style="fill:#000000" d="m414.7 382.15 26.829 5.9478-81.528 304.27 54.699-310.21z"/>
        <path id="path3267" style="fill:#ffffff" d="m441.53 388.1 26.208 8.2635-107.74 296 81.528-304.27z"/>
        <path id="path3269" style="fill:#000000" d="m467.74 396.36 25.388 10.516-133.12 285.49 107.74-296z"/>
        <path id="path3271" style="fill:#ffffff" d="m493.12 406.88 24.38 12.68-157.5 272.8 133.12-285.48z"/>
        <path id="path3273" style="fill:#000000" d="m517.5 419.56 23.177 14.765-180.68 258.03 157.5-272.8z"/>
        <path id="path3275" style="fill:#ffffff" d="m540.68 434.33 21.8 16.73-202.48 241.3 180.68-258.03z"/>
        <path id="path3278" style="fill:#000000" d="m562.48 451.06 20.26 18.56-222.74 222.74 202.48-241.3z"/>
        <path id="path3280" style="fill:#ffffff" d="m582.74 469.62 18.56 20.26-241.3 202.48 222.74-222.74z"/>
        <path id="path3282" style="fill:#000000" d="m601.3 489.88 16.73 21.81-258.03 180.67 241.3-202.48z"/>
        <path id="path3284" style="fill:#ffffff" d="m618.03 511.69 14.765 23.177-272.8 157.5 258.03-180.68z"/>
      </g>
      <g id="g3286" transform="matrix(-.5 .86603 -.86603 -.5 1139.6 726.77)">
        <path id="path3288" style="fill:#000000" d="m360 377.36 27.454 1.1987l-27.45 313.8v-315z"/>
        <path id="path3290" style="fill:#ffffff" d="m387.45 378.56 27.245 3.5869-54.699 310.21 27.454-313.8z"/>
        <path id="path3292" style="fill:#000000" d="m414.7 382.15 26.829 5.9478-81.528 304.27 54.699-310.21z"/>
        <path id="path3294" style="fill:#ffffff" d="m441.53 388.1 26.208 8.2635-107.74 296 81.528-304.27z"/>
        <path id="path3296" style="fill:#000000" d="m467.74 396.36 25.388 10.516-133.12 285.49 107.74-296z"/>
        <path id="path3298" style="fill:#ffffff" d="m493.12 406.88 24.38 12.68-157.5 272.8 133.12-285.48z"/>
        <path id="path3300" style="fill:#000000" d="m517.5 419.56 23.177 14.765-180.68 258.03 157.5-272.8z"/>
        <path id="path3302" style="fill:#ffffff" d="m540.68 434.33 21.8 16.73-202.48 241.3 180.68-258.03z"/>
        <path id="path3304" style="fill:#000000" d="m562.48 451.06 20.26 18.56-222.74 222.74 202.48-241.3z"/>
        <path id="path3306" style="fill:#ffffff" d="m582.74 469.62 18.56 20.26-241.3 202.48 222.74-222.74z"/>
        <path id="path3308" style="fill:#000000" d="m601.3 489.88 16.73 21.81-258.03 180.67 241.3-202.48z"/>
        <path id="path3310" style="fill:#ffffff" d="m618.03 511.69 14.765 23.177-272.8 157.5 258.03-180.68z"/>
      </g>
      <g id="g3312" transform="matrix(-1 1.5165e-16 -1.5165e-16 -1 720 1384.7)">
        <path id="path3314" style="fill:#000000" d="m360 377.36 27.454 1.1987l-27.45 313.8v-315z"/>
        <path id="path3316" style="fill:#ffffff" d="m387.45 378.56 27.245 3.5869-54.699 310.21 27.454-313.8z"/>
        <path id="path3318" style="fill:#000000" d="m414.7 382.15 26.829 5.9478-81.528 304.27 54.699-310.21z"/>
        <path id="path3320" style="fill:#ffffff" d="m441.53 388.1 26.208 8.2635-107.74 296 81.528-304.27z"/>
        <path id="path3322" style="fill:#000000" d="m467.74 396.36 25.388 10.516-133.12 285.49 107.74-296z"/>
        <path id="path3324" style="fill:#ffffff" d="m493.12 406.88 24.38 12.68-157.5 272.8 133.12-285.48z"/>
        <path id="path3326" style="fill:#000000" d="m517.5 419.56 23.177 14.765-180.68 258.03 157.5-272.8z"/>
        <path id="path3328" style="fill:#ffffff" d="m540.68 434.33 21.8 16.73-202.48 241.3 180.68-258.03z"/>
        <path id="path3330" style="fill:#000000" d="m562.48 451.06 20.26 18.56-222.74 222.74 202.48-241.3z"/>
        <path id="path3332" style="fill:#ffffff" d="m582.74 469.62 18.56 20.26-241.3 202.48 222.74-222.74z"/>
        <path id="path3334" style="fill:#000000" d="m601.3 489.88 16.73 21.81-258.03 180.67 241.3-202.48z"/>
        <path id="path3336" style="fill:#ffffff" d="m618.03 511.69 14.765 23.177-272.8 157.5 258.03-180.68z"/>
      </g>
      <g id="g3338" transform="matrix(-.5 -.86603 .86603 -.5 -59.603 1350.3)">
        <path id="path3340" style="fill:#000000" d="m360 377.36 27.454 1.1987l-27.45 313.8v-315z"/>
        <path id="path3342" style="fill:#ffffff" d="m387.45 378.56 27.245 3.5869-54.699 310.21 27.454-313.8z"/>
        <path id="path3344" style="fill:#000000" d="m414.7 382.15 26.829 5.9478-81.528 304.27 54.699-310.21z"/>
        <path id="path3346" style="fill:#ffffff" d="m441.53 388.1 26.208 8.2635-107.74 296 81.528-304.27z"/>
        <path id="path3348" style="fill:#000000" d="m467.74 396.36 25.388 10.516-133.12 285.49 107.74-296z"/>
        <path id="path3350" style="fill:#ffffff" d="m493.12 406.88 24.38 12.68-157.5 272.8 133.12-285.48z"/>
        <path id="path3352" style="fill:#000000" d="m517.5 419.56 23.177 14.765-180.68 258.03 157.5-272.8z"/>
        <path id="path3354" style="fill:#ffffff" d="m540.68 434.33 21.8 16.73-202.48 241.3 180.68-258.03z"/>
        <path id="path3356" style="fill:#000000" d="m562.48 451.06 20.26 18.56-222.74 222.74 202.48-241.3z"/>
        <path id="path3358" style="fill:#ffffff" d="m582.74 469.62 18.56 20.26-241.3 202.48 222.74-222.74z"/>
        <path id="path3360" style="fill:#000000" d="m601.3 489.88 16.73 21.81-258.03 180.67 241.3-202.48z"/>
        <path id="path3362" style="fill:#ffffff" d="m618.03 511.69 14.765 23.177-272.8 157.5 258.03-180.68z"/>
      </g>
      <g id="g3364" transform="matrix(0.5 -.86603 .86603 0.5 -419.6 657.95)">
        <path id="path3366" style="fill:#000000" d="m360 377.36 27.454 1.1987l-27.45 313.8v-315z"/>
        <path id="path3368" style="fill:#ffffff" d="m387.45 378.56 27.245 3.5869-54.699 310.21 27.454-313.8z"/>
        <path id="path3370" style="fill:#000000" d="m414.7 382.15 26.829 5.9478-81.528 304.27 54.699-310.21z"/>
        <path id="path3372" style="fill:#ffffff" d="m441.53 388.1 26.208 8.2635-107.74 296 81.528-304.27z"/>
        <path id="path3374" style="fill:#000000" d="m467.74 396.36 25.388 10.516-133.12 285.49 107.74-296z"/>
        <path id="path3376" style="fill:#ffffff" d="m493.12 406.88 24.38 12.68-157.5 272.8 133.12-285.48z"/>
        <path id="path3378" style="fill:#000000" d="m517.5 419.56 23.177 14.765-180.68 258.03 157.5-272.8z"/>
        <path id="path3380" style="fill:#ffffff" d="m540.68 434.33 21.8 16.73-202.48 241.3 180.68-258.03z"/>
        <path id="path3382" style="fill:#000000" d="m562.48 451.06 20.26 18.56-222.74 222.74 202.48-241.3z"/>
        <path id="path3384" style="fill:#ffffff" d="m582.74 469.62 18.56 20.26-241.3 202.48 222.74-222.74z"/>
        <path id="path3386" style="fill:#000000" d="m601.3 489.88 16.73 21.81-258.03 180.67 241.3-202.48z"/>
        <path id="path3388" style="fill:#ffffff" d="m618.03 511.69 14.765 23.177-272.8 157.5 258.03-180.68z"/>
      </g>
    </g>
    <g id="g3390" transform="matrix(.57143 0 0 .57143 154.29 296.73)">
      <g id="g3392">
        <path id="path3394" style="fill:#ff0000" d="m360 377.36 27.454 1.1987l-27.45 313.8v-315z"/>
        <path id="path3396" style="fill:#ff8000" d="m387.45 378.56 27.245 3.5869-54.699 310.21 27.454-313.8z"/>
        <path id="path3398" style="fill:#ffff00" d="m414.7 382.15 26.829 5.9478-81.528 304.27 54.699-310.21z"/>
        <path id="path3400" style="fill:#80ff00" d="m441.53 388.1 26.208 8.2635-107.74 296 81.528-304.27z"/>
        <path id="path3402" style="fill:#00ff00" d="m467.74 396.36 25.388 10.516-133.12 285.49 107.74-296z"/>
        <path id="path3404" style="fill:#00ff80" d="m493.12 406.88 24.38 12.68-157.5 272.8 133.12-285.48z"/>
        <path id="path3406" style="fill:#00ffff" d="m517.5 419.56 23.177 14.765-180.68 258.03 157.5-272.8z"/>
        <path id="path3408" style="fill:#0080ff" d="m540.68 434.33 21.8 16.73-202.48 241.3 180.68-258.03z"/>
        <path id="path3410" style="fill:#0000ff" d="m562.48 451.06 20.26 18.56-222.74 222.74 202.48-241.3z"/>
        <path id="path3412" style="fill:#8000ff" d="m582.74 469.62 18.56 20.26-241.3 202.48 222.74-222.74z"/>
        <path id="path3414" style="fill:#ff00ff" d="m601.3 489.88 16.73 21.81-258.03 180.67 241.3-202.48z"/>
        <path id="path3416" style="fill:#ff0080" d="m618.03 511.69 14.765 23.177-272.8 157.5 258.03-180.68z"/>
      </g>
      <g id="g3418" transform="matrix(.5 .86603 -.86603 .5 779.6 34.412)">
        <path id="path3420" style="fill:#ff0000" d="m360 377.36 27.454 1.1987l-27.45 313.8v-315z"/>
        <path id="path3422" style="fill:#ff8000" d="m387.45 378.56 27.245 3.5869-54.699 310.21 27.454-313.8z"/>
        <path id="path3424" style="fill:#ffff00" d="m414.7 382.15 26.829 5.9478-81.528 304.27 54.699-310.21z"/>
        <path id="path3426" style="fill:#80ff00" d="m441.53 388.1 26.208 8.2635-107.74 296 81.528-304.27z"/>
        <path id="path3428" style="fill:#00ff00" d="m467.74 396.36 25.388 10.516-133.12 285.49 107.74-296z"/>
        <path id="path3430" style="fill:#00ff80" d="m493.12 406.88 24.38 12.68-157.5 272.8 133.12-285.48z"/>
        <path id="path3432" style="fill:#00ffff" d="m517.5 419.56 23.177 14.765-180.68 258.03 157.5-272.8z"/>
        <path id="path3434" style="fill:#0080ff" d="m540.68 434.33 21.8 16.73-202.48 241.3 180.68-258.03z"/>
        <path id="path3436" style="fill:#0000ff" d="m562.48 451.06 20.26 18.56-222.74 222.74 202.48-241.3z"/>
        <path id="path3438" style="fill:#8000ff" d="m582.74 469.62 18.56 20.26-241.3 202.48 222.74-222.74z"/>
        <path id="path3440" style="fill:#ff00ff" d="m601.3 489.88 16.73 21.81-258.03 180.67 241.3-202.48z"/>
        <path id="path3442" style="fill:#ff0080" d="m618.03 511.69 14.765 23.177-272.8 157.5 258.03-180.68z"/>
      </g>
      <g id="g3444" transform="matrix(-0.5 .86603 -.86603 -0.5 1139.6 726.77)">
        <path id="path3446" style="fill:#ff0000" d="m360 377.36 27.454 1.1987l-27.45 313.8v-315z"/>
        <path id="path3448" style="fill:#ff8000" d="m387.45 378.56 27.245 3.5869-54.699 310.21 27.454-313.8z"/>
        <path id="path3450" style="fill:#ffff00" d="m414.7 382.15 26.829 5.9478-81.528 304.27 54.699-310.21z"/>
        <path id="path3452" style="fill:#80ff00" d="m441.53 388.1 26.208 8.2635-107.74 296 81.528-304.27z"/>
        <path id="path3454" style="fill:#00ff00" d="m467.74 396.36 25.388 10.516-133.12 285.49 107.74-296z"/>
        <path id="path3456" style="fill:#00ff80" d="m493.12 406.88 24.38 12.68-157.5 272.8 133.12-285.48z"/>
        <path id="path3458" style="fill:#00ffff" d="m517.5 419.56 23.177 14.765-180.68 258.03 157.5-272.8z"/>
        <path id="path3460" style="fill:#0080ff" d="m540.68 434.33 21.8 16.73-202.48 241.3 180.68-258.03z"/>
        <path id="path3462" style="fill:#0000ff" d="m562.48 451.06 20.26 18.56-222.74 222.74 202.48-241.3z"/>
        <path id="path3464" style="fill:#8000ff" d="m582.74 469.62 18.56 20.26-241.3 202.48 222.74-222.74z"/>
        <path id="path3466" style="fill:#ff00ff" d="m601.3 489.88 16.73 21.81-258.03 180.67 241.3-202.48z"/>
        <path id="path3468" style="fill:#ff0080" d="m618.03 511.69 14.765 23.177-272.8 157.5 258.03-180.68z"/>
      </g>
      <g id="g3470" transform="matrix(-1 2.3291e-16 -2.3291e-16 -1 720 1384.7)">
        <path id="path3472" style="fill:#ff0000" d="m360 377.36 27.454 1.1987l-27.45 313.8v-315z"/>
        <path id="path3474" style="fill:#ff8000" d="m387.45 378.56 27.245 3.5869-54.699 310.21 27.454-313.8z"/>
        <path id="path3476" style="fill:#ffff00" d="m414.7 382.15 26.829 5.9478-81.528 304.27 54.699-310.21z"/>
        <path id="path3478" style="fill:#80ff00" d="m441.53 388.1 26.208 8.2635-107.74 296 81.528-304.27z"/>
        <path id="path3480" style="fill:#00ff00" d="m467.74 396.36 25.388 10.516-133.12 285.49 107.74-296z"/>
        <path id="path3482" style="fill:#00ff80" d="m493.12 406.88 24.38 12.68-157.5 272.8 133.12-285.48z"/>
        <path id="path3484" style="fill:#00ffff" d="m517.5 419.56 23.177 14.765-180.68 258.03 157.5-272.8z"/>
        <path id="path3486" style="fill:#0080ff" d="m540.68 434.33 21.8 16.73-202.48 241.3 180.68-258.03z"/>
        <path id="path3488" style="fill:#0000ff" d="m562.48 451.06 20.26 18.56-222.74 222.74 202.48-241.3z"/>
        <path id="path3490" style="fill:#8000ff" d="m582.74 469.62 18.56 20.26-241.3 202.48 222.74-222.74z"/>
        <path id="path3492" style="fill:#ff00ff" d="m601.3 489.88 16.73 21.81-258.03 180.67 241.3-202.48z"/>
        <path id="path3494" style="fill:#ff0080" d="m618.03 511.69 14.765 23.177-272.8 157.5 258.03-180.68z"/>
      </g>
      <g id="g3496" transform="matrix(-.5 -.86603 .86603 -.5 -59.603 1350.3)">
        <path id="path3498" style="fill:#ff0000" d="m360 377.36 27.454 1.1987l-27.45 313.8v-315z"/>
        <path id="path3500" style="fill:#ff8000" d="m387.45 378.56 27.245 3.5869-54.699 310.21 27.454-313.8z"/>
        <path id="path3502" style="fill:#ffff00" d="m414.7 382.15 26.829 5.9478-81.528 304.27 54.699-310.21z"/>
        <path id="path3504" style="fill:#80ff00" d="m441.53 388.1 26.208 8.2635-107.74 296 81.528-304.27z"/>
        <path id="path3506" style="fill:#00ff00" d="m467.74 396.36 25.388 10.516-133.12 285.49 107.74-296z"/>
        <path id="path3508" style="fill:#00ff80" d="m493.12 406.88 24.38 12.68-157.5 272.8 133.12-285.48z"/>
        <path id="path3510" style="fill:#00ffff" d="m517.5 419.56 23.177 14.765-180.68 258.03 157.5-272.8z"/>
        <path id="path3512" style="fill:#0080ff" d="m540.68 434.33 21.8 16.73-202.48 241.3 180.68-258.03z"/>
        <path id="path3514" style="fill:#0000ff" d="m562.48 451.06 20.26 18.56-222.74 222.74 202.48-241.3z"/>
        <path id="path3516" style="fill:#8000ff" d="m582.74 469.62 18.56 20.26-241.3 202.48 222.74-222.74z"/>
        <path id="path3518" style="fill:#ff00ff" d="m601.3 489.88 16.73 21.81-258.03 180.67 241.3-202.48z"/>
        <path id="path3520" style="fill:#ff0080" d="m618.03 511.69 14.765 23.177-272.8 157.5 258.03-180.68z"/>
      </g>
      <g id="g3522" transform="matrix(0.5 -.86603 .86603 0.5 -419.6 657.95)">
        <path id="path3524" style="fill:#ff0000" d="m360 377.36 27.454 1.1987l-27.45 313.8v-315z"/>
        <path id="path3526" style="fill:#ff8000" d="m387.45 378.56 27.245 3.5869-54.699 310.21 27.454-313.8z"/>
        <path id="path3528" style="fill:#ffff00" d="m414.7 382.15 26.829 5.9478-81.528 304.27 54.699-310.21z"/>
        <path id="path3530" style="fill:#80ff00" d="m441.53 388.1 26.208 8.2635-107.74 296 81.528-304.27z"/>
        <path id="path3532" style="fill:#00ff00" d="m467.74 396.36 25.388 10.516-133.12 285.49 107.74-296z"/>
        <path id="path3534" style="fill:#00ff80" d="m493.12 406.88 24.38 12.68-157.5 272.8 133.12-285.48z"/>
        <path id="path3536" style="fill:#00ffff" d="m517.5 419.56 23.177 14.765-180.68 258.03 157.5-272.8z"/>
        <path id="path3538" style="fill:#0080ff" d="m540.68 434.33 21.8 16.73-202.48 241.3 180.68-258.03z"/>
        <path id="path3540" style="fill:#0000ff" d="m562.48 451.06 20.26 18.56-222.74 222.74 202.48-241.3z"/>
        <path id="path3542" style="fill:#8000ff" d="m582.74 469.62 18.56 20.26-241.3 202.48 222.74-222.74z"/>
        <path id="path3544" style="fill:#ff00ff" d="m601.3 489.88 16.73 21.81-258.03 180.67 241.3-202.48z"/>
        <path id="path3546" style="fill:#ff0080" d="m618.03 511.69 14.765 23.177-272.8 157.5 258.03-180.68z"/>
      </g>
    </g>
    <g id="g3548" transform="matrix(.42857 0 0 .42857 205.71 395.64)">
      <g id="g3550">
        <path id="path3552" style="fill:#000000" d="m360 377.36 27.454 1.1987l-27.45 313.8v-315z"/>
        <path id="path3554" style="fill:#ffffff" d="m387.45 378.56 27.245 3.5869-54.699 310.21 27.454-313.8z"/>
        <path id="path3556" style="fill:#000000" d="m414.7 382.15 26.829 5.9478-81.528 304.27 54.699-310.21z"/>
        <path id="path3558" style="fill:#ffffff" d="m441.53 388.1 26.208 8.2635-107.74 296 81.528-304.27z"/>
        <path id="path3560" style="fill:#000000" d="m467.74 396.36 25.388 10.516-133.12 285.49 107.74-296z"/>
        <path id="path3562" style="fill:#ffffff" d="m493.12 406.88 24.38 12.68-157.5 272.8 133.12-285.48z"/>
        <path id="path3564" style="fill:#000000" d="m517.5 419.56 23.177 14.765-180.68 258.03 157.5-272.8z"/>
        <path id="path3566" style="fill:#ffffff" d="m540.68 434.33 21.8 16.73-202.48 241.3 180.68-258.03z"/>
        <path id="path3568" style="fill:#000000" d="m562.48 451.06 20.26 18.56-222.74 222.74 202.48-241.3z"/>
        <path id="path3570" style="fill:#ffffff" d="m582.74 469.62 18.56 20.26-241.3 202.48 222.74-222.74z"/>
        <path id="path3572" style="fill:#000000" d="m601.3 489.88 16.73 21.81-258.03 180.67 241.3-202.48z"/>
        <path id="path3574" style="fill:#ffffff" d="m618.03 511.69 14.765 23.177-272.8 157.5 258.03-180.68z"/>
      </g>
      <g id="g3576" transform="matrix(.5 .86603 -.86603 .5 779.6 34.412)">
        <path id="path3578" style="fill:#000000" d="m360 377.36 27.454 1.1987l-27.45 313.8v-315z"/>
        <path id="path3580" style="fill:#ffffff" d="m387.45 378.56 27.245 3.5869-54.699 310.21 27.454-313.8z"/>
        <path id="path3582" style="fill:#000000" d="m414.7 382.15 26.829 5.9478-81.528 304.27 54.699-310.21z"/>
        <path id="path3584" style="fill:#ffffff" d="m441.53 388.1 26.208 8.2635-107.74 296 81.528-304.27z"/>
        <path id="path3586" style="fill:#000000" d="m467.74 396.36 25.388 10.516-133.12 285.49 107.74-296z"/>
        <path id="path3588" style="fill:#ffffff" d="m493.12 406.88 24.38 12.68-157.5 272.8 133.12-285.48z"/>
        <path id="path3590" style="fill:#000000" d="m517.5 419.56 23.177 14.765-180.68 258.03 157.5-272.8z"/>
        <path id="path3592" style="fill:#ffffff" d="m540.68 434.33 21.8 16.73-202.48 241.3 180.68-258.03z"/>
        <path id="path3594" style="fill:#000000" d="m562.48 451.06 20.26 18.56-222.74 222.74 202.48-241.3z"/>
        <path id="path3596" style="fill:#ffffff" d="m582.74 469.62 18.56 20.26-241.3 202.48 222.74-222.74z"/>
        <path id="path3598" style="fill:#000000" d="m601.3 489.88 16.73 21.81-258.03 180.67 241.3-202.48z"/>
        <path id="path3600" style="fill:#ffffff" d="m618.03 511.69 14.765 23.177-272.8 157.5 258.03-180.68z"/>
      </g>
      <g id="g3602" transform="matrix(-.5 .86603 -.86603 -.5 1139.6 726.77)">
        <path id="path3604" style="fill:#000000" d="m360 377.36 27.454 1.1987l-27.45 313.8v-315z"/>
        <path id="path3606" style="fill:#ffffff" d="m387.45 378.56 27.245 3.5869-54.699 310.21 27.454-313.8z"/>
        <path id="path3608" style="fill:#000000" d="m414.7 382.15 26.829 5.9478-81.528 304.27 54.699-310.21z"/>
        <path id="path3610" style="fill:#ffffff" d="m441.53 388.1 26.208 8.2635-107.74 296 81.528-304.27z"/>
        <path id="path3612" style="fill:#000000" d="m467.74 396.36 25.388 10.516-133.12 285.49 107.74-296z"/>
        <path id="path3614" style="fill:#ffffff" d="m493.12 406.88 24.38 12.68-157.5 272.8 133.12-285.48z"/>
        <path id="path3616" style="fill:#000000" d="m517.5 419.56 23.177 14.765-180.68 258.03 157.5-272.8z"/>
        <path id="path3618" style="fill:#ffffff" d="m540.68 434.33 21.8 16.73-202.48 241.3 180.68-258.03z"/>
        <path id="path3620" style="fill:#000000" d="m562.48 451.06 20.26 18.56-222.74 222.74 202.48-241.3z"/>
        <path id="path3622" style="fill:#ffffff" d="m582.74 469.62 18.56 20.26-241.3 202.48 222.74-222.74z"/>
        <path id="path3624" style="fill:#000000" d="m601.3 489.88 16.73 21.81-258.03 180.67 241.3-202.48z"/>
        <path id="path3626" style="fill:#ffffff" d="m618.03 511.69 14.765 23.177-272.8 157.5 258.03-180.68z"/>
      </g>
      <g id="g3628" transform="matrix(-1 1.5165e-16 -1.5165e-16 -1 720 1384.7)">
        <path id="path3630" style="fill:#000000" d="m360 377.36 27.454 1.1987l-27.45 313.8v-315z"/>
        <path id="path3632" style="fill:#ffffff" d="m387.45 378.56 27.245 3.5869-54.699 310.21 27.454-313.8z"/>
        <path id="path3634" style="fill:#000000" d="m414.7 382.15 26.829 5.9478-81.528 304.27 54.699-310.21z"/>
        <path id="path3636" style="fill:#ffffff" d="m441.53 388.1 26.208 8.2635-107.74 296 81.528-304.27z"/>
        <path id="path3638" style="fill:#000000" d="m467.74 396.36 25.388 10.516-133.12 285.49 107.74-296z"/>
        <path id="path3640" style="fill:#ffffff" d="m493.12 406.88 24.38 12.68-157.5 272.8 133.12-285.48z"/>
        <path id="path3642" style="fill:#000000" d="m517.5 419.56 23.177 14.765-180.68 258.03 157.5-272.8z"/>
        <path id="path3644" style="fill:#ffffff" d="m540.68 434.33 21.8 16.73-202.48 241.3 180.68-258.03z"/>
        <path id="path3646" style="fill:#000000" d="m562.48 451.06 20.26 18.56-222.74 222.74 202.48-241.3z"/>
        <path id="path3648" style="fill:#ffffff" d="m582.74 469.62 18.56 20.26-241.3 202.48 222.74-222.74z"/>
        <path id="path3650" style="fill:#000000" d="m601.3 489.88 16.73 21.81-258.03 180.67 241.3-202.48z"/>
        <path id="path3652" style="fill:#ffffff" d="m618.03 511.69 14.765 23.177-272.8 157.5 258.03-180.68z"/>
      </g>
      <g id="g3654" transform="matrix(-.5 -.86603 .86603 -.5 -59.603 1350.3)">
        <path id="path3656" style="fill:#000000" d="m360 377.36 27.454 1.1987l-27.45 313.8v-315z"/>
        <path id="path3658" style="fill:#ffffff" d="m387.45 378.56 27.245 3.5869-54.699 310.21 27.454-313.8z"/>
        <path id="path3660" style="fill:#000000" d="m414.7 382.15 26.829 5.9478-81.528 304.27 54.699-310.21z"/>
        <path id="path3662" style="fill:#ffffff" d="m441.53 388.1 26.208 8.2635-107.74 296 81.528-304.27z"/>
        <path id="path3664" style="fill:#000000" d="m467.74 396.36 25.388 10.516-133.12 285.49 107.74-296z"/>
        <path id="path3666" style="fill:#ffffff" d="m493.12 406.88 24.38 12.68-157.5 272.8 133.12-285.48z"/>
        <path id="path3668" style="fill:#000000" d="m517.5 419.56 23.177 14.765-180.68 258.03 157.5-272.8z"/>
        <path id="path3670" style="fill:#ffffff" d="m540.68 434.33 21.8 16.73-202.48 241.3 180.68-258.03z"/>
        <path id="path3672" style="fill:#000000" d="m562.48 451.06 20.26 18.56-222.74 222.74 202.48-241.3z"/>
        <path id="path3674" style="fill:#ffffff" d="m582.74 469.62 18.56 20.26-241.3 202.48 222.74-222.74z"/>
        <path id="path3676" style="fill:#000000" d="m601.3 489.88 16.73 21.81-258.03 180.67 241.3-202.48z"/>
        <path id="path3678" style="fill:#ffffff" d="m618.03 511.69 14.765 23.177-272.8 157.5 258.03-180.68z"/>
      </g>
      <g id="g3680" transform="matrix(0.5 -.86603 .86603 0.5 -419.6 657.95)">
        <path id="path3682" style="fill:#000000" d="m360 377.36 27.454 1.1987l-27.45 313.8v-315z"/>
        <path id="path3684" style="fill:#ffffff" d="m387.45 378.56 27.245 3.5869-54.699 310.21 27.454-313.8z"/>
        <path id="path3686" style="fill:#000000" d="m414.7 382.15 26.829 5.9478-81.528 304.27 54.699-310.21z"/>
        <path id="path3688" style="fill:#ffffff" d="m441.53 388.1 26.208 8.2635-107.74 296 81.528-304.27z"/>
        <path id="path3690" style="fill:#000000" d="m467.74 396.36 25.388 10.516-133.12 285.49 107.74-296z"/>
        <path id="path3692" style="fill:#ffffff" d="m493.12 406.88 24.38 12.68-157.5 272.8 133.12-285.48z"/>
        <path id="path3694" style="fill:#000000" d="m517.5 419.56 23.177 14.765-180.68 258.03 157.5-272.8z"/>
        <path id="path3696" style="fill:#ffffff" d="m540.68 434.33 21.8 16.73-202.48 241.3 180.68-258.03z"/>
        <path id="path3698" style="fill:#000000" d="m562.48 451.06 20.26 18.56-222.74 222.74 202.48-241.3z"/>
        <path id="path3700" style="fill:#ffffff" d="m582.74 469.62 18.56 20.26-241.3 202.48 222.74-222.74z"/>
        <path id="path3702" style="fill:#000000" d="m601.3 489.88 16.73 21.81-258.03 180.67 241.3-202.48z"/>
        <path id="path3704" style="fill:#ffffff" d="m618.03 511.69 14.765 23.177-272.8 157.5 258.03-180.68z"/>
      </g>
    </g>
  </g>
  <metadata>
    <rdf:RDF>
      <cc:Work>
        <dc:format>image/svg+xml</dc:format>
        <dc:type rdf:resource="http://purl.org/dc/dcmitype/StillImage"/>
        <cc:license rdf:resource="http://creativecommons.org/licenses/publicdomain/"/>
        <dc:publisher>
          <cc:Agent rdf:about="http://openclipart.org/">
            <dc:title>Openclipart</dc:title>
          </cc:Agent>
        </dc:publisher>
        <dc:title>72gon ultima</dc:title>
        <dc:date>2011-06-26T03:14:03</dc:date>
        <dc:description>72gon ultima</dc:description>
        <dc:source>https://openclipart.org/detail/147283/72gon-ultima-by-10binary</dc:source>
        <dc:creator>
          <cc:Agent>
            <dc:title>10binary</dc:title>
          </cc:Agent>
        </dc:creator>
        <dc:subject>
          <rdf:Bag>
            <rdf:li>72gon</rdf:li>
            <rdf:li>ultima</rdf:li>
          </rdf:Bag>
        </dc:subject>
      </cc:Work>
      <cc:License rdf:about="http://creativecommons.org/licenses/publicdomain/">
        <cc:permits rdf:resource="http://creativecommons.org/ns#Reproduction"/>
        <cc:permits rdf:resource="http://creativecommons.org/ns#Distribution"/>
        <cc:permits rdf:resource="http://creativecommons.org/ns#DerivativeWorks"/>
      </cc:License>
    </rdf:RDF>
  </metadata>
</svg>
