<svg id="svg9526" width="4226.8" height="2816.5" version="1.2" viewBox="0 0 4226.8242 2816.4819" xmlns="http://www.w3.org/2000/svg">
 <desc id="desc8942">Generated with Qt</desc>
 <g fill="#d5d0cc" fill-rule="evenodd" stroke="#000" stroke-linecap="square" stroke-linejoin="bevel" stroke-width="3.0703">
  <path id="path8972" d="m1407.4 1304.6-39.082 11.309 12.957 45.941-13.758 22.904 3.5898 3.2597-18.281 25.885 143.09 93.543 73.606 48.029 73.826-114.23-127.43-83.354-32.883-21.436-23.256-15.068-13.127 20.686-12.957 3.4707-3.5898-3.8906-12.998-.6191zm68.457 65.648 36.512 23.455 3.08 16.797 15.916-3.2598 24.436 15.746-1.2695 8.959-8.8985 11.867-19.625 31.914-8.1093 6.8086-24.436-17.426-3.7187-15.057-15.566 2.3594-17.607-10.619-2.3984 1.1114-13.719-9.709-1.8593-2.4297-1.7793-3.75-.92-3.6094-.3398-4.998 29.375-44.072 2.3184-1.6582 2.83-1.25z"/>
  <path id="path8976" d="m396.85 1034.9-13.338 264.82 16.293 1.3906.16797 4.7793h28.701l.71679-4.2304 51.24.4199.54883 3.8105 28.236.7696-.42188-3.6797 39.086-.7598 5.4004-210.56.75976-34.283zm31.445 89.662 89.689 11.244-.7168 15.547-4.1367 3.4707-2.3223 68.695-85.723-.3398.80273-22.836 3.207-2.8477 2.7441-56.42-3.9688-.5488z"/>
  <path id="path8980" d="m2209.2 1820.1-97.541 4.0195-87.072.6289 2.5683 132.96 216.44-5-5.0176-132.61zm-97.752 34.422 76.307.3399-.25 63.568-76.355-.2793z"/>
  <path id="path8984" d="m1226.9 627.36-125.06 40.182-31.697 10.062 11.945 41.152 19.963-6.3848 5.4863 17.906-2.3633 5.9688-15.955 7.3555 19.627 67.457 16.84 57.877-9.4121 77.24 148.32 20.75 13.379-97.504 6.8809-50.105-4.0528-13.395-23.215-76.756-18.613-61.902zm-12.029 92.369 4.9805 16.656-2.4903 2.1504 26.803 91.398 3.7558.41602 5.7813 26.094-15.236 11.66-81.545-12.979 1.8145-26.301-20.512-70.232 6.6269-12.422 43.77-13.742-1.8593-3.8867z"/>
  <path id="path8988" d="m1112.9 872.96 9.5391 1.3187-3.9252 29.633-9.5391-1.2488 3.9252-29.703m-176.47-62.875 4.6431 15.059 5.107 16.448-9.4962 79.6 73.947 10.271 105.69 14.712 9.4122-77.241-16.841-57.878-25.831 9.6461-5.9508-1.7347-4.3052 36.85-36.341-5.066 1.1398-4.7191-16.925-2.3595-41.617-5.8988-2.9544-17.211 2.6165-.97181-6.4148-20.542-2.6595.83283-33.218 10.202"/>
  <path id="path8990" d="m1410.6 317.7 11.188 36.435-24.445 7.0796-10.928-36.088-229.44 70.926 53.562 177.18 27.266-8.6063 54.954-17.003 65.634-20.264 3.1194-.97181-10.423-33.035 4.2642-3.4003-2.2805-8.1194-10.045-6.5237-8.7793 2.7065-5.7399 8.6753 2.7855 5.8289-68.081 19.918-3.1654-6.7317-23.974 6.8707-25.62-89.457 91.886-29.008 1.6877 6.6617 9.1592 4.858 12.832-3.3314 3.0814-7.0786-.7598-5.135 16.883-5.8299-1.2238-3.4003 24.562-7.2176 42.422 137.41 78.675-24.29-42.042-137.41 35.033-11.451 2.1996 1.7347 22.196-7.1476-.6698-2.7075 114.34-33.728 4.5591 5.9688 4.809 4.1642 6.4188 3.5393 7.7585 1.9426 6.0388.20895 4.0092-.4859-.8398 30.813.2499 13.047-2.3195-.13898-.6799 21.514 2.2396.69486-1.6497 59.544 80.874-25.053 4.7291-194.81-326.31 100.7"/>
  <path id="path8992" d="m1685.7 258.08-30.344-.83283-.9698-10.132 23.585-8.1894 7.7285 19.154"/>
  <path id="path8994" d="m1187.5 401.32 8.0195 24.775-11.692 3.8172-7.9765-24.845 11.649-3.7473"/>
  <path id="path8996" d="m1225.3 525.69 8.2724 26.719-10.89 3.3314-8.2724-26.65 10.89-3.4003"/>
  <path id="path8998" d="m3808.8 189.45 15.067 10.202-8.9083 13.117-3.2494-2.2208-35.113 51.564 67.067 45.665 35.243-51.842-2.4095-1.5957 6.6287-9.7851 12.708 8.6743 21.436-30.397-88.123-61.28-55.209-37.684-22.326 30.953-1.2298 2.1514 55.589 36.643 2.8295-4.1641"/>
  <path id="path9000" d="m2016 1259.5 21.776-17.277 21.906 5.9588 60.528 17.497 23.675 7.4885 28.244 7.2186 37.563 10.068-20.136 78.625-83.524-17.836-.17 100.42-86.693.21-2.1595-131.51-1.0098-60.858"/>
  <path id="path9002" d="m2350 1421.8-32.664-8.4684-22.326 121.94-26.845-.3499-55.929-.8998 21.446-134.28-47.321-12.078 3.1694-18.526 20.136-78.625 94.372 25.745 69.986 16.727-24.025 88.823"/>
  <path id="path9004" d="m2539.3 1465.6 21.226-81.474 34.823 7.3586 50.65 12.907 43.012 12.078 8.1484 34.213 10.798 59.958 9.6681 35.733-77.075 18.876-19.746-78.415-81.504-21.236"/>
  <path id="path9006" d="m2744.9 1657.5 76.065 319.5-113.29 31.304-72.766-323.81 109.99-26.995"/>
  <path id="path9008" d="m2733.3 2062.1 102.57-26.445 103.49 425.4-196.98.2099-1.0598-88.823-56.599-230.46 61.958-13.667-13.377-66.207"/>
  <path id="path9010" d="m2939.3 2461-196.98.2099-136.45 1.6697 4.6791 213.8 377.55 4.4491-48.79-220.13"/>
  <path id="path9012" d="m2031 2071.1 6.1188 255.52 79.135-.4899 4.979-256.55-90.232 1.5197"/>
  <path id="path9014" d="m2218.1 2067.6-1.4797 87.373 59.258-.6299.8898 64.677-41.572 1.5997-1.8196 16.937-6.2088-.1399 1.4797 84.803 131.81 1.3098 1.8596-86.813-26.505.07-1.3498-83.964-35.753.07.5099-87.863-24.275 2.0196-56.849.5499"/>
  <path id="path9016" d="m2037.1 2326.6 79.135-.4899 112.4-3.9493 131.81 1.3098 14.307.5599h33.094l4.5991 115.96-75.335 17.077-1.1398-31.094 21.986-.14 1.3497-59.118-56.089-7.4285-2.3195 98.821-83.994 2.4295.3299-97.641-75.255 1.3897-.5499 98.541-103.95 1.4497-.38-137.67"/>
  <path id="path9018" d="m2037.5 2464.3 3.3293 129.98 5.7389 220.67 199.35-3.1194 1.9396-237.26 279.97-7.4885-2.1096-101.87-113.33.34.08-25.535-75.335 17.077-36.213 1.0398-83.994 2.4295-75.475 2.2896-103.95 1.4497"/>
  <path id="path9020" d="m2407.8 1843.6h113.92l4.0092 621.58-113.33.34.08-25.535-4.5991-115.96-.7998-22.836 1.5597-188.12-26.335-.14-49.34.48.42-35.873 21.486-13.257 36.253.21 36.463-1.0398v-112.08l-19.786-.6199v-107.15"/>
  <path id="path9022" d="m2746.4 207.63-70.696-39.697 30.474-46.845 29.974-47.817 76.725 46.221 69.556 37.199 27.984 16.726-21.776 35.116-102.9-55.728-32.794 58.99-6.5487-4.1641"/>
  <path id="path9024" d="m2835.1 257.94 20.136 10.549 56.089 29.287-48.54 89.387-21.646-11.451-50.57-26.719 14.687-29.148 29.844-61.905"/>
  <path id="path9026" d="m2746.4 207.63-27.605 46.498 5.4089 2.4285 1.4797 18.877 16.457 10.618 4.2592-6.6627 27.865 14.921-2.9995 7.2876 33.973 18.251-14.687 29.148-90.152-53.3-79.095-46.775 22.236-32.896 32.164-48.094 70.696 39.697"/>
  <path id="path9028" d="m2667.9 319.22-53.22 89.248 101.13 37.407-11.058 32.826-67.157-24.081-33.973-12.215-90.032-30.605 32.884-53.022 74.835-109.86 79.095 46.775-18.366 32.272-14.137-8.7443"/>
  <path id="path9030" d="m2548.9 523.19-89.682-30.883 26.165-39.002 28.234-41.501 90.032 30.605-54.749 80.781"/>
  <path id="path9032" d="m2495.7 608.55-91.802-29.981 30.054-42.889 25.285-43.375 89.682 30.883-53.22 85.361"/>
  <path id="path9034" d="m2438.2 690.65-95.681-24.914 34.273-53.716 27.055-33.45 91.802 29.981-57.449 82.099"/>
  <path id="path9036" d="m2285.5 910.78-87.203-23.179 20.636-31.715 77.495-120.48 46.091-69.676 95.681 24.914 16.597 3.5393-9.8381 37.684-36.513-8.8833-98.261 152.47 12.078 9.2992 31.784-2.7065 42.622 12.562-10.888 43.998-33.294-7.7725-66.987-20.056"/>
  <path id="path9038" d="m2215.2 1015.2-89.143-20.403 20.086-28.314 52.21-78.907 87.203 23.179 66.987 20.056-9.4581 38.932-56.559-13.185-35.413 6.5237-35.913 52.118"/>
  <path id="path9040" d="m2444.5 952.21 4.6791 1.1098 34.103 7.9114-38.492 133.52-22.956 82.718-16.757 14.157-37.783-9.7081-37.733-9.7181-61.498-33.034 28.404-102.36 28.664 6.7317 6.8786 2.4985-6.2088 29.494 80.364 21.166 38.333-144.49"/>
  <path id="path9042" d="m2268.1 1139.2-20.086-3.6793-20.096-5.9688-68.497-17.765-79.524-19.015-4.5491-7.3565-1.0998-10.201 51.79-80.363 89.143 20.403-20.386 16.1-13.008 31.993 30.264 6.5237 5.9489-16.448 29.714 5.9688 9.0382-31.924 39.752 9.3691-28.404 102.36"/>
  <path id="path9044" d="m2288.1 459.83-60.908-9.5082 3.3793-26.649 10.508 1.5267 1.0198-7.8425 8.8582-58.782 10.638 1.1108 6.0788-41.64 103.45 14.92-29.674 43.584-34.143 51.98-11.058 18.044-8.1484 13.255"/>
  <path id="path9046" d="m2215.5 569.41-39.382-6.6627-18.656-2.6365 5.8688-47.817 35.073-50.106 1.3097-15.823 27.475 3.9552 60.908 9.5082-35.963 53.577-36.633 56.005"/>
  <path id="path9048" d="m2215.5 569.41-75.595 116.1-21.356 32.827-75.215 116.1-17.087-6.9406 5.2289-96.811 5.359-134.98 2.7895-54.686 65.887 10.965-2.3195 39.419 49.29 8.1194 23.635-36.782 39.382 6.6627"/>
  <path id="path9050" d="m2046 423.25 81.294 11.104-5.9489 119.64-15.827-2.0126-65.887-10.965 4.4291-79.185 1.9396-38.586"/>
  <path id="path9052" d="m2051.8 287.44 93.992 13.81-18.526 133.11-81.294-11.104 4.5591-104.31 1.2698-31.508"/>
  <path id="path9054" d="m3023.5 1263.5-8.4784-15.397-7.2986-17.427-11.358-34.903-12.238-31.994-14.777-35.813 53.86-85.494 55.879-77.657 97.801 28.037 52.97 13.324-10.888 44.068-79.484-15.268-55.249 84.736-20.556 9.3641 29.464 69.336 15.277.8998 58.039 15.547-17.856 81.814-50.35-12.488-68.087-18.806-6.6687-1.8796"/>
  <path id="path9056" d="m2027.1 1957.7 216.44-4.999 36.983-1.3197 29.834.8298.7999 29.844-35.533.4899-.6798 84.454-56.849.5499h-18.576l-.8799-77.655-75.555.9099v50.79l20.306.7698 2.6095 26.785-24.775.4199-90.232 1.5197-3.8892-113.39"/>
  <path id="path9058" d="m2733.3 2062.1-77.915 16.937-13.078-57.739 65.417-12.977 113.29-31.304 14.857 58.638-102.57 26.445"/>
  <path id="path9060" d="m2307.8 1819.1 50.14-1.3898 3.0394 136.71-8.2784.6898 2.1596 109.16-21.486 13.257-.25-10.828-21.996-.35.04-84.314-.7999-29.844-2.5695-133.09"/>
  <path id="path9062" d="m2742.4 2461.2-1.0598-88.823-113.96 1.3198.6299 51.76-22.536.2799.4699 37.133 136.45-1.6697"/>
  <path id="path9064" d="m2444.8 1094.8 51.87 14.226 2.8294-9.3682 18.406 4.857-2.2796 7.6345 66.217 18.667 13.887-56.281 46.141 10.756-16.717 61.072-21.526 82.094-21.786-4.7891-24.895-7.9085-41.322-11.658-23.555-7.5685-21.776-7.0086-48.45-12.008 22.956-82.718"/>
  <path id="path9066" d="m1657.5 2492.9 2.9594 136.29 74.705-1.3898-1.9796-135.8-75.685.8998"/>
  <path id="path9068" d="m2275.6 1982.6-.6798 84.454 24.275-2.0196-.5099 87.863 35.753-.07 1.3498 83.964 26.505-.07-1.8596 86.813 14.307.5599h33.094l-.7998-22.836 1.5597-188.12-26.335-.14-49.34.48.42-35.873-.25-10.828-21.996-.35.04-84.314-35.533.4899"/>
  <path id="path9070" d="m1488.2 2495 1.0998 73.216-20.176 17.067-57.529.21 1.0198 48.44 123.54-2.2195 47.571-1.0398-2.5795-136.78-92.942 1.1097"/>
  <path id="path9072" d="m2058.1 170.5 82.644 12.076 8.2684-74.744 68.587 7.287-4.2991 77.659 67.067 9.5078 9.8781 1.9432 3.6293-75.993 35.703 4.6498 2.4895-31.647-126.16-17.558-142.83-20.473-2.0696 45.11-2.9095 62.183"/>
  <path id="path9074" d="m2051.8 287.44 93.992 13.81 116.24 15.963 5.4889-31.161 12.878-83.766-67.067-9.5078-13.427 80.365-67.147-11.521 8.0184-79.046-82.644-12.076-2.6994 51.772-3.6293 65.166"/>
  <path id="path9076" d="m2329.8 140.03 72.266 23.596-32.164 52.258 70.736 9.6466 8.6084-13.394 10.348-15.962 47.061-71.482-167.49-22.555-7.0886-.90212-2.4895 31.647.2099 7.1482"/>
  <path id="path9078" d="m2267.5 286.05-5.4889 31.161 5.6189.83284 103.45 14.92 20.216-32.34 49.34-75.091-70.736-9.6466-23.086-3.3312-30.644 79.325-48.67-5.8299"/>
  <path id="path9080" d="m383.34 439.08 3.2077 12.631-60.399 18.599 15.743 49.065 115.23-35.602 2.6585 7.4266 29.841-8.6753-3.1654-7.3566 194.58-61.557-12.705-42.265-5.6139-18.807-279.37 86.541"/>
  <path id="path9082" d="m799.8 338.03 19.119 60.169 124.89-39.28 2.4065 7.4256 29.756-8.9522-2.4485-7.8425 37.649-11.937 2.6175 8.3974 31.022-9.3692-2.7015-8.7443 125.53-39.627-18.571-58.852-349.27 108.61"/>
  <path id="path9084" d="m1645.2 438.73-.38 20.195-7.1386 4.7201-.7998 17.489 6.6287 3.2614.12 9.5771-7.2186 7.0786 5.9588 8.6053 6.8387 19.363 4.0892-1.3187 2.6195.069 66.097 1.6657 7.3885.20796 2.7395-117.84-80.874 25.053-6.0688 1.8736"/>
  <path id="path9086" d="m1301.1 871.5-23.13-2.0826-13.379 97.505 69.557 9.7161 12.958-88.9-39.506-6.5927-6.4997-9.6461"/>
  <path id="path9088" d="m1644.8 720.01-.8899 41.432-1.2997 67.525-1.3997 57.254 3.2093-1.0408 77.155-23.387 3.5493-150.32-8.3984.90182-65.977 7.0786-5.9488.55489"/>
  <path id="path9090" d="m1655.9 527.77.3399 25.331h-11.228l-1.5197 20.612 10.508.62387-1.2698 79.948-12.028-.27795-.6698 21.653 11.728 1.2488-1.0998 42.542 65.977-7.0786 5.359-182.94-66.097-1.6657"/>
  <path id="path9092" d="m1636.1 64.456-2.1495-8.3975-22.416 7.2176 14.097 53.369 11.268-3.817 37.393 123.39 62.558-19.224.7998-9.3691-49.55-159-52 15.823"/>
  <path id="path9094" d="m1201.3 185.77 18.782 61.975 347.32-106.74-1.7297-4.7192 60.018-19.64-14.097-53.369-61.578 19.64-1.3997-4.6499-347.32 107.5"/>
  <path id="path9096" d="m433.4 813.63-4.8117 36.712 224.84 31.299 3.9672-72.73.50691-8.8143-30.221-4.2332-23.636 9.0912-26.97-4.3022-8.7373-28.731-37.185 11.52 6.4997 20.612-22.919 6.5927-6.3308-20.195-75.003 23.179"/>
  <path id="path9098" d="m391.91 722.99-1.4772 9.7161-17.727-2.7065-3.7987-.55489-5.1071 32.132-12.367 77.935 77.155 10.826 4.8117-36.712 9.5388-73.008-13.76-2.0816 1.4773-9.8551-38.746-5.6909"/>
  <path id="path9100" d="m161.67 520.83 33.724 110.21 21.357 38.794 28.954 33.728 35.243 27.274 39.97 19.501 42.883 11.243 5.1071-32.132 3.7987.55489 4.6006-29.772-27.772-7.0786-26-12.007-23.341-16.656-19.838-20.681-15.659-24.081-11.016-26.441-6.5427 1.4577-8.7793-28.731 18.698-6.8017 1.7305 4.7191 64.873-20.195-5.1071-17.142 23.341-7.2176-15.743-49.065-164.48 50.523"/>
  <path id="path9102" d="m838.09 730.21 9.5391 35.741 68.798-19.987-11.1-35.602-67.237 19.848"/>
  <path id="path9104" d="m834.29 820.84 3.2074-16.101 5.9518-4.1642 1.9406-11.59 2.5755.27794.67487-6.8007-3.4613-.55589 2.4485-15.961-9.5391-35.741-11.987-38.17-33.555 10.48 6.7537 21.375 18.993 59.752-2.9964 19.57-15.068 98.893 136.41 19.085 9.4962-79.6-5.107-16.448-16.545 5.8299-61.75-8.9522-2.1106 2.9834-26.337-4.1632"/>
  <path id="path9106" d="m744.98 812.24-1.2238 8.3274-10.721 72.244 67.195 9.2992 15.068-98.893-26.76-4.1642-2.9544 18.738-40.604-5.5519"/>
  <path id="path9108" d="m657.4 808.91-3.9672 72.73 79.602 11.173 10.721-72.244-64.619-8.6743-21.737-2.9844"/>
  <path id="path9110" d="m1257.6 729.17 23.214 76.755 23.51-6.0378 23.13-5.8988-1.2658-4.858 9.7921-2.9834 15.49.76285 5.194-.27794-24.398-79.6-74.665 22.139"/>
  <path id="path9112" d="m1053.8 621.6-44.191 13.672 22.92 79.531 24.902 86.748 5.4449-1.5957 5.1071 16.378 9.0742 2.6375 5.9508 1.7347 25.831-9.6461-19.626-67.456-7.1326-24.845-11.945-41.154-16.335-56.005"/>
  <path id="path9114" d="m958.76 2096.7-17.77 27.005 3.8832 5.269 14.223 8.7483-4.0512 6.4488 76.733 50.73 3.3764-1.5297 12.156 8.1884-40.815 62.388 2.7015 1.9396 72.977 47.471 60.525-94.382-183.94-122.28"/>
  <path id="path9116" d="m878.6 2043.4-9.2012 13.807-54.109 82.094 68.503 44.691 44.697-67.867 12.494 7.5685 17.77-27.005-53.773-35.943-26.38-17.347"/>
  <path id="path9118" d="m687.66 1916.6-27.689 42.192-36.256 55.789 83.866 54.619 11.439-16.657-20.724-12.698 32.204-48.72 31.994 20.336 20.513-31.504-95.346-63.358"/>
  <path id="path9120" d="m1265.9 1888-178.83-118.25-1.9416 2.8394-19.964-11.938-16.545 25.475-18.36-10.898-42.166 67.037 11.608 6.3888-31.023 49.27 21.146 15.887-1.4347 2.7095 63.48 40.592 76.987 50.38-1.5617 2.0896 23.72 14.707 5.1909-7.3585 59.85 39.282-4.8961 8.6083 26.295 17.966 6.3318-9.848-7.6825-5.8289 19.458-30.264 8.3143 4.6591 6.1209-9.3782-5.107-3.5993 84.162-131.3-64.114-42.122-19.035 32.894"/>
  <path id="path9122" d="m1347.2 1757.9-62.298 97.221 64.114 42.122 62.429-97.361-64.244-41.982"/>
  <path id="path9124" d="m1232 1663.7 8.4843 4.719-9.0322 13.318 35.032 23.185 29.713 19.286 14.562-23.735-8.6523-5.5489 34.609-50.59-63.774-42.052-40.942 61.418"/>
  <path id="path9126" d="m1146.3 1536.4-7.0906-3.8892-40.688 62.108 9.4541 6.3888 56.769 36.993 33.85-52.75 8.3144 5.4189 7.1756-11.108 22.117-1.4597-82.093-54.13-7.8085 12.428"/>
  <path id="path9128" d="m1108 1601-17.938 30.394 65.675 43.162-9.2012 13.188 33.26 20.956-.8868 4.5891 42.166 28.654-32.289 51.08 15.405 9.1583 62.257-97.291-35.032-23.185-66.646-43.712-56.769-36.993"/>
  <path id="path9130" d="m1017.8 1434.2-19.119 6.9387 4.3891 18.036v12.218l-27.308 42.752 63.733 41.772 51.198-73.696-72.893-48.021"/>
  <path id="path9132" d="m525.33 1671.5 5.4449 96.461 21.611-1.3197 22.37-1.6597-.88682-16.727-4.7271-80.504-43.811 3.7492"/>
  <path id="path9134" d="m886.16 1969-152.33-101.25-35.708-23.735 75.636-115.61-82.98-118.26 92.814-52.67 19.204-11.448 106.91-40.532 150.85 99.171-3.8412 7.0086 26.295 15.547-174.11 299.23-22.75 42.542"/>
  <path id="path9136" d="m1386.3 1677-12.278 20.336 6.4087 4.3692-9.7481 16.247-3.6693-2.2896-11.688 18.386 2.9494 1.5297-13.504 20.466 2.4895 1.8096 64.244 41.982 48.201-74.535-64.797-42.812-8.6083-5.4889"/>
  <path id="path9138" d="m1309.4 1521.1-15.786 24.285-3.5033 5.7589 119.45 78.355 4.8091-1.6696 4.8091-2.9795 3.8792-3.7492 7.0986 4.5091-35.293 56.909 64.797 42.812 48.201-74.596-198.46-129.63"/>
  <path id="path9140" d="m1495.9 1507.4-42.842 64.887-32.674-19.776 4.2192-6.9387-48.7-30.884-2.6195-6.7287-14.817-9.5081-2.4495 2.4995-49.252-33.104-23.72 35.743 26.38 17.487 198.46 129.63 61.618-95.281-73.606-48.031"/>
  <path id="path9142" d="m1446.7 1185.2-10.758 76.545 53.86 7.2186.2499-3.3294 23.635 3.0494-.7598 18.736-5.069-.28-1.3498 17.766-4.2591-.6898-19.206 32.204 32.884 21.436 24.815-37.883 3.8792-6.2488 4.2692-30.814 10.888-81.544-113.08-16.167"/>
  <path id="path9144" d="m1559.7 1201.4-10.888 81.544 50.31 5.479.5498-3.3294 42.332 2.9194-3.7593 38.303-16.757-1.0398-27.935 42.612-18.026-10.198.9698-2.0196-22.076-13.317-10.208-19.226-3.5493-3.1194-24.815 37.883 127.43 83.354 73.736-114.09.2499-87.233-18.066-18.536-139.49-19.986"/>
  <path id="path9146" d="m1337.1 1169.5-11.776 75.295 60.985 6.4587.1699 3.8193 49.43 6.6587 10.758-76.545-109.57-15.687"/>
  <path id="path9148" d="m990.45 1295.5-5.4449 3.3993-14.393-2.2196-9.2852 65.027 15.068 1.8096 4.1782 5.269 28.406 3.9592-1.4768 10.688 29.46 3.9493 4.938-34.353 6.8807-49.75-58.331-7.7785"/>
  <path id="path9150" d="m1181.9 1147.3-26.676 186.82-1.8986 12.698 43.642 5.6889 7.0486-43.302-6.1628-1.0398 7.0486-51.57-5.1909-1.0398 1.3077-14.707 25.831 2.9095.1269 4.1692 39.506 4.2291.5489-2.8394 24.48 2.6295-.8869 15.547-3.9252-.3499-5.6559 39.492-6.1618-.3499-2.2796 15.757 5.9089 19.636 33.007-9.5782 13.801-87.303 11.776-75.295-155.2-22.206"/>
  <path id="path9152" d="m1073 1131.7-11.312 80.084-.8858 6.9387 21.99 2.1595.4219-5.2789 56.094 6.4587-1.3507 16.997-4.6011-.8998-6.7107 51.56-74.58-8.8083-3.2494 22.416-6.8807 49.75 70.233 10.418 5.7409 12.768 7.5545 18.876 21.99-7.9085 5.9098-40.392 1.8986-12.698 26.676-186.82-108.94-15.617"/>
  <path id="path9154" d="m960.74 1115.6-4.854 34.764-43.938 321.94 49.594-17.976-7.1756-16.167 7.4706-60.308-3.1654-1.5897 2.6595-14.577 9.2852-65.027 3.8832-21.506 1.2668.9698 8.5673-59.888-2.2366-.4199 1.9836-15.057 77.577 10.958 11.312-80.084-112.23-16.028"/>
  <path id="path9156" d="m379.88 1370.9-4.1364 82.034 19.415 14.567 14.604-17.896 13.338 9.7781 11.523-11.238 45.035 1.1098.25295 4.4391 64.282 1.7397 2.1096-82.864-166.42-1.6696"/>
  <path id="path9158" d="m907.14 1143.4 3.2074-22.551-25.409-3.5393-2.6585 22.481-.75985-.07-2.3215 22.006-22.708-3.0594 3.4613-25.675-30.474-4.4392-.97081 5.8289-22.919-3.5393 3.0814-16.725-70.908-10.271-3.1664 17.003-28.489-4.719 1.0548-4.9281-8.3564-1.1098.33693-2.6374-19.33-2.6375-.37992 2.4985-8.0194-1.1798-.75985 5.066-31.529-3.6773.29494-4.0252-85.934-11.798-5.4019 210.56-1.7737 70.296-2.1096 82.864-2.9974 121.58 49.045-1.8697.16897-44.001 2.6165-.8998.71786-69.186 3.6723-.7699.63288-22.206-3.6303-.4099 1.9836-69.326-4.6001-.21.97081-44.421 34.567.6998.92882-37.403-32.584-.7698.42192-16.587h-1.8996l1.3507-48.92-2.5325-.35.80184-31.574 35.243 3.1894 2.2376-11.238 93.743 14.087-5.7829 49.13 15.575 2.4296-.5069 5.8988 9.7501 15.407 14.561 1.7297 11.861-11.378.88583-6.0388 16.462 2.5695 7.3016-46.981.042-2.4995 76.902 8.0484-1.0128 13.807 25.451 3.0595-5.8249 52.53-7.4286-.21-3.5873 20.546 6.7947 1.8097-12.704 92.502 7.0906 2.0097-10.721 88.073 41.785-14.927 43.938-321.94-48.749-7.0087"/>
  <path id="path9160" d="m3020.8 2248.6 11.598 48.72 10.938 45.941 77.655-18.396-22.706-94.932-77.485 18.666"/>
  <path id="path9162" d="m3043.3 2343.3 11.478 48.361 10.428 43.861 212.64-51.01-2.1495-96.251-39.082 9.3681 3.7493 18.466.7198 35.253 2.4895 11.238-13.207 3.1194-.8498-3.8793-77.485 18.106.6698 4.5791-16.967 4.0292-14.777-63.638-77.655 18.396"/>
  <path id="path9164" d="m3465.2 1977.6.5099 31.084 11.058-.13 1.0498 61.408 84.254-2.7694-.9698-47.121-.8898-44.351-83.404 1.5297-11.608.35"/>
  <path id="path9166" d="m3311.8 2266.9 1.9396 98.881 86.103-2.4295-1.0898-31.294-10.218.4199-.21-16.797h4.7691l-1.1798-51.07-80.114 2.2895"/>
  <path id="path9168" d="m3483.9 2461.5.9298 59.888h-8.6483l.8398 29.564 94.882-2.3595-.9198-45.391-.8899-43.512-86.193 1.8097"/>
  <path id="path9170" d="m3480.8 2262 .8498 67.867-10.598.28.2099 31.364 96.781-2.7095-.9699-46.771-1.0598-52.46-85.213 2.4296"/>
  <path id="path9172" d="m2954 1967.4 3.1194 13.108 19.036 80.084 234.71-55.929-22.536-93.482-75.005 18.046 9.8781 41.572 3.6293.1999 4.8091 19.926-15.067 3.9492-2.6995-2.4995-48.37 12.288-2.0196 3.9492-15.237 3.6793-14.907-63.978-79.344 19.086"/>
  <path id="path9174" d="m3110.5 2625.9 21.066 88.683 3.0394 12.698 81.624-19.636-18.906-79.944 13.587-3.1893-6.6687-21.866-93.742 23.256"/>
  <path id="path9176" d="m3303.9 1886.9 2.6594 13.807 1.4298 79.734 79.604-1.5197-.3799-65.927 21.186-.6999 2.8294 3.1294 13.887-.14.3799 3.6093 33.264-.9698 2.7794-4.1692h14.187l.5499 17.976-3.9692.4199-.17 18.456 4.4292.21.17 26.435 83.404-1.5297-.3-12.698-1.6396-81.954-85.933 1.8696-168.37 3.9592"/>
  <path id="path9178" d="m2930.7 1869.6 11.478 48.301 11.778 49.48 79.344-19.086-16.207-66.557 16.037-4.0192 1.0598 4.2992 77.835-19.916-.7199-4.4392 14.597-3.6792 3.9692 16.307 24.485 29.214 4.5591 18.596 29.374-6.9387 8.7383-2.8394 11.268-2.0796-33.214-40.532-39.212-47.331-64.457 16.037-61.488 15.337-79.225 19.846"/>
  <path id="path9180" d="m3471.2 2361.5.08 32.404 11.398-.1999 1.1798 67.727 86.193-1.8097-1.0597-51.42-1.0098-49.41-96.781 2.7095"/>
  <path id="path9182" d="m3309.8 2168.6 1.9796 98.341 80.114-2.2895-1.0998-47.051-3.7593-.4899-.8398-17.067 23.675-1.1798 2.2795 3.3993 23.426-.4199 1.5197-3.6793 42.632-1.1098 1.0098 64.957 85.213-2.4296-1.0497-50.73-.9699-48.021-254.13 7.7685"/>
  <path id="path9184" d="m3065.2 2435.5 10.208 42.952 12.668 53.37 83.614-20.686-15.027-66.267 13.847-3.6793 1.1398 4.9291 22.406-5.479 1.2697 1.5197 47.691-11.098 35.833-1.0398-1.0098-45.531-212.64 51.01"/>
  <path id="path9186" d="m2976.1 2060.6 19.796 83.414 2.4496 10.278 78.805-18.536-14.147-63.008 14.147-3.3993 4.1692 3.6093 47.061-10.968 2.3695-5.269 15.997-3.3393 4.1792 19.086-3.1294 1.1798 9.9181 43.302 76.185-17.767-23.086-94.512-234.71 55.929"/>
  <path id="path9188" d="m2998.4 2154.2 7.4685 31.504 14.947 62.868 77.485-18.666 5.6989-1.5297-22.956-93.402-3.8392.6899-78.805 18.536"/>
  <path id="path9190" d="m3001.4 1813 8.5683 36.713 61.488-15.337-8.1384-33.873-.8099-2.8395-61.108 15.337"/>
  <path id="path9192" d="m3477.8 2069.9.8898 65.517-43.092.9698-2.4495-3.6793-22.156.2799-2.7895 3.8093-22.876.7698-.6799-17.696 4.2692-.4199-.9298-46.491-79.944 2.6995 1.8196 92.922 254.13-7.7685-.8898-42.052-1.0498-51.63-84.254 2.7694"/>
  <path id="path9194" d="m3477 2550.9.13 26.575 11.228-.2099 1.8596 112.77 42.412-.6299.7198 9.6481 41.622-1.1797-.5499-26.995-2.0696-99.581-.4699-22.756-94.882 2.3595"/>
  <path id="path9196" d="m3088.1 2531.8 11.608 48.85 10.758 45.251 93.742-23.256 78.085-19.566-.8799-38.722-59.728 12.558 1.0098 5.4189-20.846 4.6491.3399 4.0892-15.067 3.8892-15.407-63.848-83.614 20.686"/>
  <path id="path9198" d="m2925.8 1613.4-45.381 44.281 15.787 66.477 21.146 89.043 13.427 56.419 79.225-19.846-8.5683-36.713-7.8585-32.964-4.2592.6898-12.538-63.288-19.706-20.126 26.465-25.535-57.739-58.439"/>
  <path id="path9200" d="m3153.1 2216.7 21.996 95.351 61.538-14.437 39.082-9.3681-.7999-37.123-18.616 4.7891.9699 3.4693-18.906 4.6491-15.367-64.258-69.896 16.927"/>
  <path id="path9202" d="m3186.5 1622.2-20.676 80.434 87.743 21.296-3.8393 15.067-4.0892 1.3197-8.2784 30.254-8.6483 17.487-68.717-1.4597-14.647-4.8591-9.4482 36.573 39.212 47.331 18.056-16.307 33.813.7598 22.496 5.139 52.97-203.4-75.335-19.296-40.612-10.338"/>
  <path id="path9204" d="m3302.4 1651.9-52.97 203.4-11.228 43.722 49.89-11.938-.5898-13.187 4.679-5.8289 20.056-78.345-7.4785-1.8796 7.1386-31.434-2.5295-.7599 4.2592-16.867 20.596 5.069-1.0997 4.4392 62.938 15.687 20.766-82.794-33.933-8.6783-80.494-20.606"/>
  <path id="path9206" d="m2972.8 1567.6-47.011 45.801 57.739 58.439 26.085-27.065 20.046 21.096 92.052 24.145 4.6891-3.7392 12.958 3.5393-4.1392 15.747-5.019.3499-6.8887 26.095 32.334 9.778 10.218-39.062 20.676-80.434-77.025-19.706-95.092-24.365-41.622-10.618"/>
  <path id="path9208" d="m3416.9 1681.2-20.766 82.794 50.35 12.768 1.2197-4.3091 30.854 8.0484-4.7191 19.986-2.6595 2.1596 1.1398 80.284 85.933-1.8696-1.8597-89.173-1.3897-68.567-6.9287-8.6083-57.359-14.637-73.816-18.876"/>
  <path id="path9210" d="m4198.7 539.29-32.464 49.481-26.925 44.138-58.159-36.227-23.256-15.823-208.26-133.8 20.976-32.827 74.246 47.539 36.423-62.945 70.156 45.942-35.033 63.848 68.877 51.009 35.753-69.399 77.665 49.065"/>
  <path id="path9212" d="m3448.1 581.14 40.182-60.933 13.297 8.8143 20.596-31.508-84.454-61.002-36.093 52.952-19.196 28.662-11.058 16.239 76.725 46.776"/>
  <path id="path9214" d="m3959.9 919.94-76.095-50.661-39.672 67.109-113.33-81.335 34.483-59.613-68.967-45.318-60.618 92.579 263.13 171 22.836-33.519 38.232-60.238"/>
  <path id="path9216" d="m3576 397.99 12.028-16.795 1.8596.90183 25.785-32.896.3799-5.4129 5.5689-4.7891 6.4587 4.928 21.956-33.936-89.063-57.047-42.122 63.293-10.768 16.934-8.4783 11.659 76.395 53.161"/>
  <path id="path9218" d="m3829.8 703.28 28.324-51.494 28.824-42.126-33.684-21.93-35.663-26.58-61.368 96.812 73.566 45.317"/>
  <path id="path9220" d="m3340.2 1345.9 22.916-82.034-76.435-17.836 23.515-92.292 73.566 20.116 20.976-82.093-107.29-28.592-65.087 255.87 53.22 13.607 54.619 13.257"/>
  <path id="path9222" d="m3176.8 992.88 67.527-93.619 93.362 61.14-47.061 64.541 78.385 23.178 48.53-73.91-232.13-165.38-67.107 93.689-24.525 39.904-14.777 22.416 97.801 28.037"/>
  <path id="path9224" d="m3185.5 808.84 15.107-22.208 49.13-68.913 72.896 49.273-38.073 62.528 111.64 73.008 43.182-56.491 70.566 48.926-61.028 95.7-31.284-16.448-232.13-165.38"/>
  <path id="path9226" d="m3898.8 1013.7-263.13-171-62.078 95.63 69.976 43.86 41.872-55.658 118.26 77.796-37.433 54.269 71.926 44.831 18.736-27.135 41.872-62.597"/>
  <path id="path9228" d="m3698.1 1325.2-2.2396 12.498 82.564-137.41-225.94-140.95-18.496 31.09 142.92 87.931 1.4697 18.246-51.49 83.764 71.206 44.831"/>
  <path id="path9230" d="m3672.1 278.76-11.438-6.5227 75.965-114.93-2.4896-1.8044 6.0789-8.2586 11.318 7.5646 22.326-30.953-84.834-55.867-56.609 78.353-41.482 60.933-30.014 45.666 89.063 57.047 22.116-31.231"/>
  <path id="path9232" d="m3757.7 521.66-68.467-49.759-36.503 54.27-11.228 1.8736-110.16-70.579 44.651-59.475-76.395-53.161-47.611 66.902-14.307 24.775 84.454 61.002 95.311 65.444 77.065 51.077 63.188-92.37"/>
  <path id="path9234" d="m3959.9 919.94 20.006-35.393 37.903-61.418-56.129-39.557-75.425-44.831-21.656 32.479 61.078 35.532-41.872 62.528 76.095 50.661"/>
  <path id="path9236" d="m3148.6 1296.7 54.619 14.717 29.164 7.6285 65.087-255.87-78.505-12.908-21.366 75.435 43.102 11.795-22.456 88.143-51.79-10.758-17.856 81.814"/>
  <path id="path9238" d="m3634 707.93 60.478-93.898-77.065-51.077-18.876 28.314 2.6195 15.545-39.672 52.397 72.516 48.718"/>
  <path id="path9240" d="m3901.7 76.462 33.673 22.902 35.793 24.221-36.933 54.41-3.0794-2.082-6.6687 9.8548 11.698 7.4952-18.916 29.564-88.123-61.28 17.976-26.025 12.328 8.328 9.5382-14.019-2.4096-1.6656 35.123-51.703"/>
  <path id="path9242" d="m3720.4 423.74 4.0992-1.4577 7.6385-9.3682-10.808-6.9406-3.7592 1.1798-89.523-63.223 21.956-33.936 22.116-31.231 66.307 40.738 38.113-57.394 67.067 45.665-38.242 62.669 65.207 43.79-20.976 32.827-21.946 34.144-29.884-20.473-40.092 60.933-68.467-49.759 31.194-48.164"/>
  <path id="path9244" d="m3557.8 1401.1-56.009-13.537-52.67-14.707 58.839-224.23 105.94 26.095-8.5283 33.654-73.016-16.377-27.475 108.12 73.016 18.676-20.096 82.304"/>
  <path id="path9246" d="m3634.2 1417.5 17.976-22.696 45.881-69.606-71.206-44.831-12.198 47.951-36.803-9.5682-20.096 82.304 33.983 8.2584 42.462 8.1884"/>
  <path id="path9248" d="m3509.9 894.96 61.708-92.37-259.45-178.22-48.411 70.926-14.057 22.416 72.896 49.273 46.971-61.418 3.4193 7.8415 21.946 15.685-3.2494 3.8162 84.884 56.422-37.223 56.698 70.566 48.926"/>
  <path id="path9250" d="m3838.2 1103.4-43.182 81.402-16.627 15.477-225.94-140.95-41.962-32.826 63.108-88.206 69.976 43.86-35.923 65.165 21.446 14.504 3.4194-5.2049 66.557 42.194 15.497 14.782-3.2094 6.3848 14.047 7.8465 40.862-69.264 71.926 44.831"/>
  <path id="path9252" d="m3449.1 1372.8 58.839-224.23 7.5485-28.038-110.79-28.8-20.976 82.093 69.636 18.946-18.106 86.893-72.176-15.827-22.916 82.034 52.34 11.308 56.599 15.617"/>
  <path id="path9254" d="m3634 707.93-72.516-48.718-45.161 57.185-109.91-74.119 41.612-61.14-76.725-46.776-42.252 65.652-16.927 24.359 259.45 178.22 62.428-94.66"/>
  <path id="path9256" d="m3853.3 587.73 33.684 21.93 39.512 26.164 22.196-33.658 21.236-32.896 68.457 44.138 19.546-32.549-208.26-133.8-21.946 34.144 60.018 40.182 1.3097-2.0126 6.2088 4.0252-41.962 64.333"/>
  <path id="path9258" d="m3845.6 1790.5-19.246 76.825-.25 1.5197 16.337 4.9991 2.5695 5.069 15.707 3.8192.8398-1.7396 52.42 12.628 20.096-80.564-43.692-11.108-44.781-11.448"/>
  <path id="path9260" d="m3677.9 2094.3 2.1096 106.87 236.11-4.0992 14.137-103.95-36.043.2-9.1682 66.897-105.89 1.5297-.17 5.279-13.637.07-2.2396-73.216-85.213.4199"/>
  <path id="path9262" d="m3675 1947.3 1.3897 69.806 1.5597 77.175 85.213-.4199-3.6293-110.06 11.108-.3499.8799-37.753-11.308.07-85.213 1.5297"/>
  <path id="path9264" d="m3686.5 2525.3 2.1596 108.47 84.154-.7599 15.157-.2799.17-37.403-16.207.3399-1.0198-73.136-84.414 2.7694"/>
  <path id="path9266" d="m3680 2201.2 2.1496 106.38 87.333-.4899-1.0998-71.686 17.137-.13.25 3.1894 124.9-1.2498 5.449-40.112-236.11 4.0992"/>
  <path id="path9268" d="m3684.3 2415.4 2.1895 109.85 84.414-2.7694-1.2198-73.426 19.206-.14.6698 2.5695 92.102-1.2497 5.059-37.053-202.42 2.2195"/>
  <path id="path9270" d="m3682.1 1748.8-10.888 8.4683 1.8997 95.142 1.8996 94.942 85.213-1.5297.7598-90.842 23.336 1.8796 42.082 10.548 19.246-76.825-81.124-20.686-82.424-21.096"/>
  <path id="path9272" d="m3682.2 2307.5 2.1596 107.91 202.42-2.2195 5.199-38.372-104.51.4099v4.1692l-16.967.4099-.9698-72.796-87.333.4899"/>
  <path id="path9274" d="m3890.1 1392 69.726-102.29-73.276-43.232-22.366 34.213-47.021 74.465 72.936 36.843"/>
  <path id="path9276" d="m3935.5 1494.6-9.9181-1.6597-9.5381-2.5695-70.276-15.267-83.274-27.695 39.762-70.296 14.897-21.926 72.936 36.843 8.0185 4.6591 56.469 14.567-19.076 83.344"/>
  <path id="path9278" d="m467.42 2504.7 41.955-67.867 71.077 43.232-43.811 67.177-34.61-21.306-34.61-21.236"/>
  <path id="path9280" d="m790.01 2609.3-43.39 68.557-34.863-21.716-34.863-21.656 42.756-69.396 70.36 44.211"/>
  <path id="path9282" d="m370.34 2349.9 68.629 42.882-41.574 66.967-70.107-41.982 43.052-67.867"/>
  <path id="path9284" d="m580.45 2480.1 69.853 43.022-43.179 67.867-70.486-43.712 43.811-67.177"/>
  <path id="path9286" d="m499.54 2295-18.36 30.324-18.824 31.084 70.401 42.682 37.185-61.488-70.401-42.602"/>
  <path id="path9288" d="m247.65 2369.2 79.434 49 .21106-.4199 43.052-67.867-29.376-18.526-1.2662-5.8288-14.393-9.0983-6.2045 1.6697-6.3734-4.0992 5.2337-7.6285 9.0746-.4899 55.967-91.252-28.532-16.997-34.694 55.579-22.117 35.463-50.015 80.494"/>
  <path id="path9290" d="m451.85 2221.8-39.633 62.458 68.967 41.082 18.36-30.324 17.052-26.855 3.0804-5.209-67.827-41.152"/>
  <path id="path9292" d="m650.31 2523.1 69.346 42.052-42.756 69.396-69.769-43.582 43.179-67.867"/>
  <path id="path9294" d="m444.21 1581.3-42.798 127.35-56.811 103.6-90.577 163.02-36.383 108.05 33.344 18.246 37.691 21.376 23.932 13.607 22.919-34.493 90.577 63.148 58.626-81.264-46.048-37.123 41.532-67.037 49.804 27.205 66.35-114.23-93.489-62.388 27.139-45.311-9.0322-153.93-9.0742-40.802-67.701-9.0183"/>
  <path id="path9296" d="m3244.4 485.71 12.708-20.542 16.037-22.764 31.364-45.526-66.097-41.085-107.17-59.753-38.782-20.334-4.1392-2.4985-52.3 96.744 71.336 40.321 32.834-63.432 70.236 37.685-34.733 63.084 68.707 38.101"/>
  <path id="path9298" d="m3060.6 754.15-31.314 43.306-13.297 20.195-12.028 17.489-92.142-22.625-70.486-19.015-48.49-13.255 18.526-70.717 4.2592-1.9426 2.7895-11.59-20.806-5.344-2.6195 7.2176-27.475-10.757 13.757-36.435 122.32 32.479-19.326 72.037-3.8492-1.2498-3.6693 14.366 25.955.62388 24.905 6.8707 14.817 4.3032 10.258-15.268-3.4194-1.8736 41.612-55.589 69.726 46.775"/>
  <path id="path9300" d="m2969.6 374.05-2.2396 3.4003-25.415-13.81 20.936-35.88 27.815 16.032 45.371 26.164 71.336 40.321 68.337 37.337 68.707 38.101-16.417 22.833-15.697 23.873-26.505 36.573-69.856-39.21 29.884-51.147-92.982-56.006-27.265 58.227-12.328-6.3158-63.098-36.99 30.594-56.769-11.178-6.7317"/>
  <path id="path9302" d="m2736.2 73.27 76.725 46.221 42.552-74.953 70.986 48.65-43.981 63.501 27.984 16.726 38.712 21.653 26.835-40.53-2.1496-2.9842 8.5684-14.366 10.088 1.041 82.814 51.911 14.977 9.4384 1.7397 9.4384-31.364 49.691 27.645 14.504 4.1392 2.4985 53.64-80.643-373.87-177.39-36.043 55.589"/>
  <path id="path9304" d="m3140.6 637.35-44.061 57.879-19.416 31.785-16.547 27.135-69.726-46.775 44.071-61.418-65.717-26.51 14.557-41.085 156.84 58.989"/>
  <path id="path9306" d="m2766.6 1034-69.766-17.003-30.264-7.6335 11.358-35.463 98.801 21.722-1.0098 6.5927 17.766 3.9562 29.804-51.216-133.29-32.271 8.8683-36.226 34.733 8.3974 196.85 51.98-36.933 56.629-37.473 54.477-89.442-23.942"/>
  <path id="path9308" d="m3304.5 396.88 18.316-25.817 27.645-42.959-204.37-133.04-53.64 80.643 38.782 20.334 27.265-48.58 107.17 68.706-27.265 39.627 66.097 41.085"/>
  <path id="path9310" d="m3338.5 2.1345-46.301 68.706 158.7 110.14 13.387-20.334 8.2684-12.492 9.3281-18.322 15.327-20.542-67.957-45.527-29.884 46.29-52.3-36.574 28.414-45.943-36.983-25.401"/>
  <path id="path9312" d="m2603.7 1228.4 61.028 14.367 42.932 12.358 7.4685-2.2896 9.3282-4.6591 47.401-70.086 36.213-49 32.534-49.268 15.497-21.93-89.442-23.942-69.766-17.003-11.778 40.182 47.061 12.075-.25 7.4256 5.439 3.6782-3.4594 17.211-10.088 1.5267-42.842 63.988-55.749-16.727-21.526 82.094"/>
  <path id="path9314" d="m3185.8 568.99-26.895 40.738-18.316 27.621-156.84-58.989-81.414-29.494 39.582-116.94 8.2384 5.6209 63.098 36.99-27.645 67.249 100.83 35.463 29.504-47.47 69.856 39.21"/>
  <path id="path9316" d="m3003.9 835.14-38.203 57.67-35.243 53.992-196.85-51.98 34.233-121.03 24.945 6.4537 48.49 13.255-3.4593 13.324 3.2093 1.4577-9.5781 33.519-4.6891-.97181-9.878 41.362 44.611 8.8833 36.933-49.481 13.337-29.078 92.142 22.625"/>
  <path id="path9318" d="m2112.4 1622.4 1.2197-31.924 6.2888-12.428 148.91-2.4895-.6298-40.672-55.929-.8998-27.645-.4899 2.4495-45.451-71.206.6199.1699-37.053-10.168.07-86.693.21.8799 55.239.5099 30.044 4.0892 87.443 87.753-2.2196"/>
  <path id="path9320" d="m2111.6 1824.1-87.073.6299.12-200.14 87.753-2.2196.6798 42.262 53.81-1.5997 130.54-3.9492 1.6896 71.056 1.2698 87.863-20.136.7598-41.742 1.3198h-29.374l-.4699-66.487-97.541.6999.4699 69.806"/>
  <path id="path9322" d="m2299.1 1730.2 222.19.21 57.909-83.064 35.573-8.3284 5.109 21.856 5.9988 25.815 9.0282-2.1496 109.99-26.995-27.305-111.11-77.075 18.876-53.43 13.257-28.994 6.9386-67.027 100.84-.04-11.388-12.248.07-.25-76.615-102.94.3499.17 48.651h-8.1884l.04 11.098-70.196.6299 1.6896 71.056"/>
  <path id="path9324" d="m872.53 2446.5-21.273 31.714 4.3482 2.1496 8.6103 1.9396 15.912-5.139 3.3764 6.9486-38.872 61.128-7.8085.6999-2.1956-16.867-1.6877-4.0892-3.4613-3.5393-21.484 31.014 12.199 8.1184 7.4286 4.8591 22.834 14.437 42.715 28.104 66.434-103.54-73.272-48.99-13.802-8.9482"/>
  <path id="path9326" d="m467.42 2504.7-34.989-22.486-35.032-22.416 41.574-66.967 70.402 44.001-41.955 67.867"/>
  <path id="path9328" d="m603.29 2441.7 46.09 27.895 40.899-67.597-46.09-27.895-3.7143 6.1088-37.185 61.488"/>
  <path id="path9330" d="m886.33 2455.5 73.272 48.99.084-.14 61.117-95.281-74.37-48.85-17.095 26.995-16.461 26.095-26.548 42.192"/>
  <path id="path9332" d="m690.15 2191.6-61.031 92.572 13.083 8.8783 37.396 24.915 17.601 11.518 61.623-92.712-39.97-26.435-28.701-18.736"/>
  <path id="path9334" d="m855.35 2399.5-5.233.8998-12.621-8.6783-14.35 21.726 49.382 33.104 13.802 8.9482 26.548-42.192-33.47-20.886-9.5391 16.237-14.519-9.1582"/>
  <path id="path9336" d="m564.58 2109.1-61.243 91.462 38.957 26.095 29.672 19.496 61.622-91.672-65.505-43.232-3.5033-2.1496"/>
  <path id="path9338" d="m790.01 2609.3 24.395 14.777 4.7701-8.2583 10.087-2.0796 21.188-33.863 42.715 28.104.96981.07-67.194 104.16-17.432 4.0992-25.451-15.407-37.438-23.046 43.39-68.557"/>
  <path id="path9340" d="m754.89 2368 68.25 45.451 14.35-21.726 35.285-53.64 11.988-18.386-52.042-34.423-17.137-11.108-60.694 93.832"/>
  <path id="path9342" d="m970.19 2329.5-54.363-34.413 41.068-63.298-63.438-41.352-60.736 94.792 52.042 34.423 61.665 40.522 74.37 48.85 61.369-95.691-72.977-47.471-38.999 63.638"/>
  <path id="path9344" d="m1158.5 2499-90.915 141.63 64.957-1.1797 162.08-3.2594-.5909-32.544-20.724.4799-2.3635-3.5393-51.197 1.1098-1.3928 3.1994-15.49.2-1.3508-36.563 10.763-.9098 24.015-37.613 35.37.5599.5069 4.2992 19.668-.8299-.3799-36.643-132.95 1.5997"/>
  <path id="path9346" d="m609.15 2046.3-41.068 64.957 65.505 43.232 56.558 37.203 28.701 18.736 22.497-34.143-108.94-70.436 20.26-31.714-43.516-27.834"/>
  <path id="path9348" d="m1980.5 887.67 56.939 20.056 4.809 2.4285 1.7697 4.2332-2.4495 5.275-2.6995 2.7065-45.581 71.758-10.638 16.725-9.4582 14.851-.17 2.5675-2.9894 1.9436-4.1792-.6938-3.1693-2.8455-.7999-5.6909 1.8996-3.6783.04-33.034.09-62.181-.9298-3.6783 1.3497-4.5801 2.8695-3.6783 5.149-17.142-.13-3.1224 1.6497-2.8454 2.8294-1.5267 2.9894.83284.8099 1.3187"/>
  <path id="path9350" d="m1701.5 1552 7.4285 4.859-29.294 44.691-7.4286-4.8591 29.294-44.691"/>
  <path id="path9352" d="m2539.3 1465.6-78.505-20.476 21.316-81.604 21.316 5.5489 26.625 7.0786 30.474 7.9785-21.226 81.474"/>
  <path id="path9354" d="m2350 1421.8 24.025-88.823 57.269 15.957 50.78 14.647-21.316 81.604-13.217 53.09-8.5683 34.283-47.271.5598 22.876-93.622-64.577-17.696"/>
  <path id="path9356" d="m359.58 1029.6-2.3214 44.97-18.276 68.15-17.812 304.72 54.49 5.419 4.2208-81.964 3.6298-71.126 13.338-264.83-37.269-5.344"/>
  <path id="path9358" d="m1321.7 2244.9-160.81 252.74 130.59-.2099 196.77-2.4296 92.942-1.1097 76.395-.9699 75.685-.8998-3.6793-250.17-407.89 3.0494"/>
  <path id="path9362" d="m1434.9 775.59 11.388 35.601-5.8589.27794 2.5295 3.8173 3.6693 7.5645 2.0296 5.8289 2.0196 9.8551 28.404 3.8173 3.2093-28.454-13.667-48.51-33.723 10.202"/>
  <path id="path9364" d="m1373.2 707.79 9.7481 30.466-5.069 1.6657 6.3788 19.778 5.189-1.2488 8.9882 28.107 36.433-10.965 33.723-10.202 4.7691-1.4567-25.285-78.352-74.875 22.208"/>
  <path id="path9366" d="m1477.8 854.02-6.6287 59.821-2.7395 24.983 64.907-19.778 107.8-32.826 1.3997-57.254-26.465-.20796-.7599 11.173-41.362 12.076-8.6583-23.734-87.493 25.747"/>
  <path id="path9368" d="m893.17 671.36 12.156 39.002 11.1 35.602 19.964 64.124 33.218-10.202-23.382-72.73 50.606-14.504 4.3052 11.381 31.403-9.2292-22.92-79.531-116.45 36.087"/>
  <path id="path9370" d="m661.03 743.18-3.1234 56.907-.50691 8.8143 21.737 2.9844 12.114-24.498 2.5325-16.864 22.032-5.6909 1.2248 3.6783 27.435-9.2302-10.679-38.655-72.765 22.555"/>
  <path id="path9372" d="m1346.3 620.9 5.7829 18.807 21.19 68.081 74.875-22.208-9.3282-28.246 7.2586-2.2906-8.9882-25.886-7.0886 1.3887-9.1583-32.133-36.263 10.966-38.28 11.52"/>
  <path id="path9374" d="m1404.4 513.13 13.547 46.081 9.7981-3.1224 10.808 36.851 88.843-26.997-7.4686-25.816-11.358-6.5237-13.507-48.511-5.399 1.6657-78.675 24.29-6.5888 2.0816"/>
  <path id="path9376" d="m1292.7 547.62 13.886 45.734-8.6523 1.8046 11.269 36.99 37.016-11.243 38.28-11.52-11.228-34.839 12.618-3.6773-3.7892-12.84-12.668 3.6783-11.098-34.352-65.634 20.264"/>
  <path id="path9378" d="m1468.5 938.82 2.7395-24.983-38.742-5.6209v3.5393l-54.999-9.994 5.109-11.659 6.4087-42.958-3.4593-2.6375 2.8295-14.92 12.957-7.0096 11.648-4.7881 11.188-3.4703 14.987-2.7765 1.3097-.069 5.8589-.27794-11.388-35.601-36.433 10.965-38.282 11.52-13.08 89.664-12.958 88.9 128.14 17.766 6.1687-55.588"/>
  <path id="path9380" d="m1462.3 994.41 255.19 35.671 4.0492-168.29-77.155 23.387-.08 5.066-.5099 17.35-.38 16.795-3.6293.27695.7199 23.526-48.92-7.0786-12.028 4.5111-4.0492.4859-3.8493.069-3.9192-.27795-3.8393-.62387-3.8892-1.0408-3.6293-1.3187-3.6293-1.7357-3.3793-2.0816-3.1594-2.2906-2.9594-2.6365-2.6995-2.9844-2.3596-3.0534-2.0695-3.2614-1.7297-3.4703-1.0198-2.3595-64.907 19.778-6.1687 55.588"/>
  <path id="path9382" d="m1053.8 621.6 16.335 56.005 31.698-10.062-16.968-55.45-31.065 9.5072"/>
  <path id="path9384" d="m1546.3 514.1 11.228 38.239 60.908-19.57-11.398-37.754-60.738 19.085"/>
  <path id="path9386" d="m1598.5 904.54 5.109 15.753 40.222-12.7.5099-17.35-45.841 14.296"/>
  <path id="path9388" d="m1557.7 684.2 4.3092 20.195 36.593-7.9814-4.3092-20.056-36.593 7.8425"/>
  <path id="path9390" d="m1210.5 573.23 13.548 44.831 28.068-8.6743-14.35-44.763-27.266 8.6063"/>
  <path id="path9392" d="m668.33 371.34 12.705 42.265 34.272-10.827-13.506-42.403-33.47 10.965"/>
  <path id="path9394" d="m1530.1 750.06 10.088 30.258 40.812-11.243-6.1588-32.132-44.741 13.116"/>
  <path id="path9396" d="m1532.1 712.65-13.047 4.2332 9.0782 30.605 13.417-4.0252-9.4482-30.813"/>
  <path id="path9398" d="m1309.2 632.15 3.7993 12.354 2.0676 6.6617 36.932-11.451-5.7829-18.807-37.016 11.243"/>
  <path id="path9400" d="m1605.5 724.24-31.274 9.4382.6299 3.2614 6.1588 32.132 62.888-7.6335.8899-41.432-39.292 4.2342"/>
  <path id="path9402" d="m1224.1 618.06 2.8275 9.3002 12.072 39.904 74.075-22.763-3.7993-12.354-11.269-36.99-45.838 14.227-28.068 8.6743"/>
  <path id="path9404" d="m775.7 730.55 13.971 49.065-3.8832 19.501 2.7435-.07 26.76 4.1642 2.9964-19.57-18.993-59.752-23.594 6.6617"/>
  <path id="path9406" d="m1280.8 805.92 4.0523 13.394-6.8807 50.105 23.13 2.0826 5.5289-5.4139 5.7819-42.819-8.1034-23.387-23.51 6.0378"/>
  <path id="path9408" d="m1627.9 491.47-7.6386-.69386-13.207 4.2332 11.398 37.754 1.5197 5.066 29.294-8.8133-6.8387-19.363-5.9588-8.6053-.3799-.48591-8.1884-9.0912"/>
  <path id="path9410" d="m733.83 1867.8-16.462 23.595-65.97-42.262-19.373 30.254 3.5033 2.2896 52.127 34.913 95.346 63.358 95.599 63.498 26.38 17.347 33.512-51.35-39.548-26.235 2.2796-4.2292-15.068-9.9281-152.33-101.25"/>
  <path id="path9412" d="m2.1126 1903.6 54.925 33.523-54.925 90.282v177.06l179.48-293.98 62.087 36.783 132.49-227.14-192.59-150.32-181.46 294"/>
  <path id="path9414" d="m1896.5 90.343 28.864.76335.21 63.848-11.058 231.1-21.656 452.41-6.0688 127.21-18.156-.83284-15.147-.69387.9698-87.72 1.6896-38.863 12.698-287.52 8.4883-165.8 11.818-230.34 7.3486-63.571"/>
  <path id="path9416" d="m1868.7 817.86 13.507.27794-.2999 14.92-6.8387-.069-6.6687-.20796.3-14.921"/>
  <path id="path9418" d="m1868.7 818 13.467.27695-.2599 14.852-6.8787-.13897-6.6287-.07.3-14.92"/>
  <path id="path9420" d="m3123.3 1732-6.3288 25.885 32.084 9.4382 6.5787-25.545-32.334-9.778"/>
  <path id="path9422" d="m3071.2 1798.7-7.9284 1.8697 8.1384 33.873 64.457-16.037 9.4482-36.573-31.354-8.8082-4.4791 18.246 3.9692.9098-4.1392 15.607-38.113-9.0883"/>
  <path id="path9426" d="m911.95 1472.3-41.785 14.927-103.75 37.473 17.179 32.754 19.204-11.448 106.91-40.532 150.85 99.171 4.2202 2.7094 15.237-24.705-104.21-68.567-63.861-41.782"/>
  <path id="path9428" d="m573.87 1748.3.88682 16.727-22.37 1.6597 2.4055 23.525 59.005-1.5897-22.834-22.906-2.5755-3.4693-1.9836-4.3692-.92782-3.6793-.42292-4.7191-11.185-1.1797"/>
  <path id="path9430" d="m1500.3 1966.7-2.4895 3.8892 13.337 1.5897-11.058 5.8389-9.9581 7.6285-8.4083 9.3682-6.5788 10.758-4.5591 11.658-2.4895 12.218-5.6589-3.9592-1.5997 2.4295 66.097 44.481 1.2598.6299 34.363-51.57 28.484 2.7094 3.5093-45.871-3.9692-.6199-90.282-11.178"/>
  <path id="path9432" d="m1500.3 1966.7 90.282 11.178 1.6897-12.358 18.486-26.505-2.9994-3.3294 17.217-38.732-1.3497-9.3682 13.427-20.116 9.2881 2.9095 11.818 12.148-1.8596 15.887-3.8892 1.5997.1699 16.027-4.0092.2799-4.809 5.6889-.6799 62.458 82.814 10.408-2.7794-191.18-3.9693-5.489-88.003-24.835-8.5683 2.9094-122.28 190.42"/>
  <path id="path9434" d="m1644.3 2090.6.25 44.131-5.6089 5.4189.8398 15.677 5.069 2.7794-.7598 19.216 12.198.5599.4999 24.015-8.0584-.2799 1.7696-5.0691-6.4087-4.929-127.56-1.0398-1.6897 52.33 214.67-1.5997-.2899-19.296 13.037-.4799-.1699-22.416-13.168.14-.3399-20.476 6.6287.21-.6299-26.375-6.3287.4199-.3-19.226 14.347-.34-.4599-24.425-14.227.7599-.3399-22.416-82.974 2.7095"/>
  <path id="path9436" d="m569.94 2337.6-37.185 61.488 70.529 42.682 37.185-61.488-70.529-42.682"/>
  <path id="path9438" d="m806.98 2581.7 6.9226 4.9291 13.717-21.166-7.4286-4.8591-13.211 21.096"/>
  <path id="path9440" d="m1002.1 1661.4-19.922 34.073 26.887 16.787 20.09-33.793-27.055-17.067"/>
  <path id="path9442" d="m635.53 1881.6-27.35 43.102 51.788 34.003 27.689-42.192-52.127-34.913"/>
  <path id="path9444" d="m1594.6 1978.5-3.5093 45.871 22.836 2.6395 2.2795-4.5791 9.5782.3399 1.9896-3.1893 7.1286 7.2186.17 14.577 6.0788 4.2292.3799 45.041h2.8294l82.974-2.7095-.4599-31.224 9.0282-.4899.3399 1.1098.4699 1.0398.7099.9698.8498.7699.9698.6198 1.0998.35 1.1398.1399 1.1798-.07 1.0998-.35 1.0098-.4899.8898-.7598.7598-.8999.4999-1.0398.34-1.1097.6798-28.244-.3399-1.2498-.5499-1.1798-.7598-1.0398-.9299-.8398-1.1397-.6899-1.2198-.4199-1.2697-.1999-1.2698.1299-1.2198.28-1.1397.6299-1.0098.7598-.8899.8299h-9.7881l-.4699-30.394-82.814-10.408-48.531-5.9688"/>
  <path id="path9446" d="m1527 2072.6-16.417 25.465 9.4882 6.4587 16.467-25.465-8.2784-5.8289-1.2598-.6299"/>
  <path id="path9448" d="m610.63 2272.1-14.519 23.595 30.685 18.596 15.405-21.166-13.083-8.8783-18.487-12.148"/>
  <path id="path9450" d="m1204.2 1802.2 33.555 21.926 60.525-98.331-2.1105-1.5997-29.713-19.286-62.257 97.291"/>
  <path id="path9452" d="m679.6 2318-9.7921 15.757 33.724 22.416 10.172-15.477-16.504-11.178-17.601-11.518"/>
  <path id="path9454" d="m1415.3 2099.1-93.661 145.8 93.991-.6898 34.703-53.64 31.064-48.44-66.097-43.032"/>
  <path id="path9456" d="m1197.1 1447.6-15.954 25.545 112.44 72.236 15.786-24.285-26.38-17.487-85.892-56.009"/>
  <path id="path9458" d="m1481.4 2142.1-31.064 48.44 66.217.5499 25.955-47.051-52.08-1.7997-9.0283-.1399"/>
  <path id="path9460" d="m884.77 2319.7-11.988 18.386 44.74 31.504-4.7691 7.0086 16.587 10.618 17.095-26.995-61.665-40.522"/>
  <path id="path9462" d="m542.3 2226.6-22.624 36.293-3.0804 5.209 59.892 35.183 19.626-7.6385 14.519-23.595-38.661-25.955-29.672-19.496"/>
  <path id="path9464" d="m1460.9 2028.1-45.541 70.986 66.097 43.032 9.0283.1399-1.6897-10.968 21.786-33.244 16.417-25.465-66.097-44.481"/>
  <path id="path9466" d="m1080 1582.7-15.237 24.705-4.2202-2.7094-3.8412 7.0086 26.295 15.547 7.0486 4.1592 17.938-30.394-9.4541-6.3888-18.529-11.928"/>
  <path id="path9468" d="m783.01 1979.9-20.513 31.504-14.435 22.626 40.477 27.895 16.968-24.705 39.843 27.275 10.552-15.477 13.506 8.1884 9.2012-13.807-95.599-63.498"/>
  <path id="path9472" d="m3794.4 94.507 1.4697-2.429 55.169 37.823-3.9692 5.6214-17.976 26.025-55.209-37.684 20.516-29.356"/>
  <path id="path9474" d="m3448.9 990.66 32.454 22.347-35.963 51.702-41.232-8.9533 44.741-65.095"/>
  <path id="path9476" d="m2888.7 208.53-2.0695 4.2334 100.5 54.618-16.167 30.327-101.3-56.352-14.387 27.135 56.089 29.287 79.305 46.012 55.889-94.523-97.371-54.202-38.712-21.653-21.776 35.116"/>
  <path id="path9478" d="m2637.6 454.62-32.834 90.843 86.483 28.87 33.004-88.484-19.496-7.1486-67.157-24.081"/>
  <path id="path9480" d="m2604.8 545.47-31.994 87.999 85.763 28.038 32.714-87.166-86.483-28.87"/>
  <path id="path9482" d="m2572.8 633.47-31.104 84.043 66.177 18.043 21.566 2.4985 29.124-76.547-85.763-28.038"/>
  <path id="path9484" d="m2454.8 694.19 86.863 23.318 66.177 18.043-14.307 46.22-62.848-14.435-6.6687 23.942 7.1786 9.3692-5.6989 23.664-10.348-1.2488-8.8583 26.094-77.625-17.489 26.385-94.868-10.088-4.927 9.8381-37.684"/>
  <path id="path9486" d="m2607.9 735.55 21.566 2.4985 65.927 18.807-65.967 238.31-87.283-20.264 51.45-193.14 14.307-46.22"/>
  <path id="path9488" d="m2468.6 878.65-19.416 74.672 34.103 7.9114 28.284 6.5937 22.746-87.72-23.885-5.205-2.9994 13.81-38.832-10.063"/>
  <path id="path9490" d="m2682.1 327.97-1.6796 2.4985 56.429 32.34 2.1096-3.8173 10.718 7.0796 3.4593 6.6617-4.2992 18.391-4.5191-1.8736-16.717 45.665 4.3091 1.9426-4.0992 10.479-11.938-1.4567-11.058 32.826 19.496 7.1486 67.657 24.359 49.22-134.5-50.57-26.719-90.152-53.3-18.366 32.272"/>
  <path id="path9492" d="m2942 648.04-110.25-41.293-10.718 31.23-31.874-10.688 38.072-105.35 75.135 26.927 81.414 29.494-14.557 41.085-15.537-5.8299-11.688 34.422"/>
  <path id="path9494" d="m319.78 2253.3-78.464-42.052 47.357-88.273 78.295 46.431-47.188 83.894"/>
  <path id="path9496" d="m2280.3 1818.8.26 14.157-23.096 1.3897 3.7992 105.76 18.866-.6999.43 12.008-36.983 1.3197-5.019-132.61 41.742-1.3198"/>
  <path id="path9498" d="m2439 1532.5 70.366-3.0495.25-32.754-62.048 1.5197-8.5683 34.283"/>
 </g>
</svg>
