<?xml version="1.0" encoding="UTF-8" standalone="no"?>
<svg
   xmlns:dc="http://purl.org/dc/elements/1.1/"
   xmlns:cc="http://creativecommons.org/ns#"
   xmlns:rdf="http://www.w3.org/1999/02/22-rdf-syntax-ns#"
   xmlns:svg="http://www.w3.org/2000/svg"
   xmlns="http://www.w3.org/2000/svg"
   xmlns:sodipodi="http://sodipodi.sourceforge.net/DTD/sodipodi-0.dtd"
   xmlns:inkscape="http://www.inkscape.org/namespaces/inkscape"
   width="600"
   version="1.2"
   height="314.51718"
   viewBox="0 0 600 315"
   id="svg7264"
   >
  <g
     inkscape:label="Eberswalder"
     inkscape:groupmode="layer"
     id="Layer 5"
     style="display:inline;fill:none;fill-rule:evenodd;stroke:#000000;stroke-width:1;stroke-linecap:square;stroke-linejoin:bevel"
     transform="translate(0, -479.08158)">
    <g
       font-style="normal"
       font-weight="400"
       transform="matrix(0.17080222,0,0,0.15219754,4.0581038,507.7616)"
       font-size="54.1667"
       id="g6860"
       style="font-style:normal;font-weight:400;font-size:54.16669846px;font-family:'.SF NS Text';fill:#b39669;fill-opacity:1;stroke:#000000;stroke-width:3.07086992;stroke-linecap:square;stroke-linejoin:bevel;stroke-opacity:1">
      <path
         d="m 730.852,1087.36 21.577,76.5 -22.912,38.13 5.974,5.43 -30.433,43.11 238.259,155.77 122.573,79.97 122.92,-190.21 -212.179,-138.79 -54.75,-35.71 -38.726,-25.07 -21.858,34.43 -21.577,5.78 -5.974,-6.47 -21.647,-1.04 -16.165,-60.67 -65.082,18.84"
         id="path6676"
          />
      <path
         d="m 909.933,1177.84 -9.629,1.96 -4.709,2.08 -3.866,2.78 -48.917,73.38 0.563,8.32 1.546,6.01 2.952,6.24 3.092,4.04 22.842,16.18 4.006,-1.85 29.308,17.68 25.935,-3.93 6.184,25.08 40.694,29 13.494,-11.32 32.682,-53.16 14.83,-19.76 2.11,-14.91 -40.7,-26.23 -26.492,5.43 -5.131,-27.96 -60.794,-39.06"
         id="path6678"
         style="vector-effect:none;fill:#ffffff;fill-rule:evenodd" />
      <path
         d="m 1910.41,767.602 991.13,258.968 99.09,16.87 1.06,-22.76 28.67,3.35 16.17,-7.05 18.69,-26.347 129.54,2.195 9.2,5.894 229.76,71.878 -1696.28,-791.935 25.73,16.526 140.91,48.073 17.64,-5.894 18.35,-12.48 118.56,51.078 -149,237.477 -30.78,-20.57 -16.52,24.268 -29.02,39.29 -12.86,26.695 0.77,12.48 6.25,20.57 22,13.636 33.74,8.089 12.51,4.392 -5.55,21.263 20.24,4.044"
         id="path6680"
         style="display:none;vector-effect:none;fill-rule:evenodd" />
      <path
         d="m 234.374,24.5456 19.89,68.5281 33.244,-10.6317 9.137,29.815 -3.936,9.938 -26.567,12.25 32.682,112.325 28.042,96.378 -15.673,128.62 246.974,34.552 22.28,-162.363 11.456,-83.435 -6.747,-22.303 L 546.5,110.408 515.506,7.32689 495.405,-59.1212 287.157,7.78913 234.374,24.5456"
         id="path6682"
          />
      <path
         d="m 358.775,138.72 -11.035,20.686 34.158,116.948 -3.022,43.798 135.786,21.61 25.372,-19.415 -9.629,-43.451 -6.255,-0.693 -44.629,-152.194 4.146,-3.583 -8.293,-27.7345 -46.808,14.6765 3.092,6.471 -72.883,22.881"
         id="path6684"
         style="vector-effect:none;fill:#ffffff;fill-rule:evenodd" />
      <path
         d="m 305.501,349.851 15.883,2.196 -6.536,49.344 -15.884,-2.08 6.537,-49.46 M 11.6482,245.153 l 7.7311,25.076 8.5042,27.388 -15.8137,132.549 123.1352,17.103 175.988,24.499 15.673,-128.62 -28.042,-96.378 -43.013,16.063 -9.91,-2.889 -7.169,61.363 -60.514,-8.436 1.898,-7.858 -28.183,-3.929 -69.2992,-9.823 -4.9198,-28.659 4.3575,-1.618 -10.683,-34.206 -4.4278,1.387 -55.3125,16.988"
         id="path6686"
          />
      <path
         d="m 2365.63,1263.7 -54.4,-14.1 -37.18,203.04 -44.7,-0.58 -93.12,-1.5 35.7,-223.61 -78.79,-20.11 5.27,-30.85 33.53,-130.93 157.15,42.87 116.53,27.85 -39.99,147.92"
         id="path6690"
          />
      <path
         d="m 2680.78,1336.73 35.35,-135.66 57.98,12.25 84.34,21.49 71.62,20.11 13.57,56.97 17.99,99.84 16.09,59.51 -128.33,31.43 -32.9,-130.58 -135.71,-35.36"
         id="path6692"
          />
      <path
         d="m 3023.2,1656.25 -183.16,44.95 183.16,-44.95"
         id="path6694"
          />
      <path
         d="m 2512.52,46.2712 -159.33,-41.48667 57.07,-89.44493 45.05,-55.7006 152.87,49.9225 -95.66,136.7097"
         id="path6696"
          />
      <path
         d="m 2258.24,412.832 -145.21,-38.598 34.37,-52.811 129.04,-200.615 76.75,-116.02347 159.33,41.48667 27.62,5.8936 -16.37,62.7502 -60.8,-14.792 -163.62,253.888 20.1,15.485 52.93,-4.507 70.98,20.917 -18.13,73.266 -55.45,-12.943 -111.54,-33.397"
         id="path6698"
          />
      <path
         d="m 2141.08,586.75 -148.44,-33.974 33.45,-47.149 86.94,-131.393 145.21,38.598 111.54,33.397 -15.75,64.829 -94.18,-21.956 -58.96,10.862 -59.81,86.786"
         id="path6700"
          />
      <path
         d="m 2522.99,481.821 7.8,1.849 56.79,13.174 -64.1,222.339 -38.23,137.747 -27.9,23.574 -62.9,-16.178 -62.84,-16.178 -102.4,-55.007 47.3,-170.451 47.72,11.209 11.46,4.16 -10.33,49.113 133.82,35.246 63.81,-240.597"
         id="path6702"
          />
      <path
         d="m 2229.21,793.141 -33.45,-6.125 -33.46,-9.938 -114.07,-29.583 -132.41,-31.664 -7.59,-12.249 -1.83,-16.987 86.24,-133.819 148.44,33.974 -33.95,26.811 -21.65,53.273 50.4,10.863 9.91,-27.388 49.47,9.938 15.04,-53.158 66.21,15.601 -47.3,170.451"
         id="path6704"
          />
      <path
         d="m 2141.57,-155.616 -125.88,193.3356 -35.56,54.6607 -125.25,193.3347 -28.46,-11.557 8.72,-161.208 8.92,-224.767 114.35,-72.805 -3.86,65.64 82.09,13.52 39.35,-61.247 65.58,11.093"
         id="path6706"
          />
      <path
         d="m 3486.99,1000.22 -14.13,-25.65 -12.15,-29.005 -18.91,-58.127 -20.38,-53.273 -24.6,-59.629 89.68,-142.37 0.49,368.054"
         id="path6708"
          />
      <path
         d="m 2280.87,1777.24 -2.81,-118.33 116.88,-1.04 -0.07,-18.49 h 13.63 l -0.28,-81.01 171.42,-0.57 0.42,127.57 20.38,-0.11 0.07,18.95 111.61,-167.91 48.29,-11.55 88.98,-22.08 128.33,-31.43 35.71,139.13 9.77,45.88 -742.33,120.99"
         id="path6710"
          />
      <path
         d="m 2523.48,719.183 86.38,23.689 4.71,-15.6 30.64,8.089 -3.79,12.712 110.27,31.085 23.13,-93.719 76.82,17.912 -27.84,101.693 -35.84,136.707 -36.27,-7.974 -41.46,-13.173 -68.81,-19.414 -39.22,-12.596 -36.26,-11.672 -80.69,-19.992 38.23,-137.747"
         id="path6712"
          />
      <path
         d="m 2280.87,1777.24 559.17,-76.04 -15.04,3.59 -9.98,-42.99 -8.51,-36.4 -59.24,13.86 -96.43,138.33 -369.97,-0.35"
         id="path6714"
          />
      <path
         d="m 618.962,347.424 -38.515,-3.467 -22.28,162.363 115.826,16.179 21.577,-148.034 -65.785,-10.978 -10.823,-16.063"
         id="path6716"
          />
      <path
         d="m 1191.2,95.1538 -1.47,68.9902 -2.18,112.441 -2.32,95.338 5.34,-1.733 128.48,-38.944 5.9,-250.3063 -13.98,1.5023 -109.86,11.7873 -9.91,0.9245"
         id="path6718"
          />
      <path
         d="m 1210.39,-182.773 h -18.69 l -2.53,34.322 17.5,1.04 -2.11,133.1278 -20.03,-0.4622 -1.13,36.0553 19.54,2.0801 -1.83,70.8393 109.86,-11.7873 -100.58,-265.215"
         id="path6720"
          />
      <path
         d="m 12.0698,430.166 15.8137,-132.549 -8.5042,-27.388 -27.5509,9.707 20.2414,150.23"
         id="path6722"
          />
      <path
         d="m 546.5,110.408 38.656,127.811 39.147,-10.054 38.515,-9.823 -2.108,-8.089 16.305,-4.969 25.794,1.271 8.645,-0.462 L 670.83,73.5438 546.5,110.408"
         id="path6724"
          />
      <path
         d="m 207.175,-68.7128 -73.586,22.7657 38.163,132.4338 41.467,144.4513 9.067,-2.657 8.504,27.272 15.111,4.391 9.91,2.889 43.013,-16.063 -32.682,-112.325 -11.878,-41.3713 -19.89,-68.5281 -27.199,-93.2584"
         id="path6726"
          />
      <path
         d="m 262.558,1843.11 -3.233,4.74 -33.244,-19.88 -27.551,42.41 -30.573,-18.14 94.601,-9.13"
         id="path6728"
         style="display:none;vector-effect:none;fill-rule:evenodd" />
      <path
         d="m 695.781,1823.35 v 0"
         id="path6730"
          />
      <path
         d="m 503.839,1666.54 14.126,7.85 -15.04,22.19 58.335,38.6 49.479,32.12 24.247,-39.52 -14.408,-9.24 57.632,-84.24 -106.197,-70.03 -68.174,102.27"
         id="path6732"
          />
      <path
         d="m 361.235,1454.6 -11.808,-6.47 -67.752,103.43 15.743,10.63 94.53,61.59 56.367,-87.82 13.846,9.01 11.948,-18.49 36.828,-2.43 -136.7,-90.13 -13.002,20.68"
         id="path6734"
          />
      <path
         d="m 297.418,1562.19 -29.87,50.61 109.36,71.88 -15.322,21.95 55.383,34.9 -1.476,7.63 70.213,47.73 75.554,-61.71 -58.335,-38.6 -110.977,-72.8 -94.53,-61.59"
         id="path6736"
          />
      <path
         d="m 147.294,1284.38 -31.838,11.56 7.309,30.05 v 20.33 l -45.4727,71.19 106.1267,69.56 85.253,-122.72 -121.378,-79.97"
         id="path6738"
          />
      <path
         d="m 218.42,1568.31 -6.396,11.67 43.787,25.89 -37.391,-37.56"
         id="path6740"
          />
      <path
         d="m 760.792,1688.72 -20.452,33.86 10.683,7.28 -16.235,27.04 -6.115,-3.81 -19.468,30.62 4.92,2.54 -22.491,34.09 4.147,3.01 187.233,-54.2 -107.884,-71.3 -14.338,-9.13"
         id="path6742"
          />
      <path
         d="m 632.807,1429.06 -26.285,40.45 -5.834,9.59 198.901,130.47 8.012,-2.78 8.012,-4.97 6.466,-6.24 11.808,7.51 -58.757,94.76 107.884,71.3 80.263,-124.22 -330.47,-215.87"
         id="path6744"
          />
      <path
         d="m 943.317,1406.3 -71.337,108.05 -54.399,-32.94 7.028,-11.55 -81.106,-51.43 -4.358,-11.21 -24.669,-15.83 -4.076,4.16 -82.02,-55.12 -39.499,59.51 43.926,29.12 330.47,215.87 102.613,-158.66 -122.573,-79.97"
         id="path6746"
          />
      <path
         d="m 861.367,869.757 -17.922,127.463 89.681,12.02 0.422,-5.55 39.358,5.09 -1.265,31.2 -8.434,-0.47 -2.249,29.59 -7.099,-1.16 -31.978,53.62 54.75,35.71 41.329,-63.1 6.46,-10.4 7.1,-51.3 18.13,-135.787 -188.283,-26.926"
         id="path6748"
          />
      <path
         d="m 1049.65,896.683 -18.13,135.787 83.78,9.12 0.91,-5.54 70.5,4.85 -6.26,63.79 -27.9,-1.73 -46.53,70.95 -30.01,-16.99 1.62,-3.35 -36.76,-22.19 -17.01,-32.01 -5.9,-5.2 -41.329,63.1 212.179,138.79 122.79,-189.98 0.42,-145.262 -30.08,-30.854 -232.29,-33.281"
         id="path6750"
          />
      <path
         d="m 678.913,843.641 -19.609,125.382 101.559,10.747 0.281,6.356 82.301,11.094 17.922,-127.463 -182.454,-26.116"
         id="path6752"
          />
      <path
         d="m 101.68,1053.5 -9.0661,5.66 -23.9664,-3.7 -15.4622,108.28 25.0909,3.01 6.958,8.78 47.3008,6.58 -2.46,17.8 49.057,6.59 8.223,-57.2 11.456,-82.86 -97.131,-12.94"
         id="path6754"
          />
      <path
         d="m 420.483,806.662 -44.419,311.088 -3.162,21.15 72.672,9.47 11.737,-72.11 -10.261,-1.73 11.737,-85.862 -8.644,-1.733 2.178,-24.499 43.013,4.854 0.211,6.933 65.785,7.049 0.914,-4.737 40.764,4.391 -1.476,25.884 -6.537,-0.58 -9.418,65.76 -10.261,-0.58 -3.795,26.23 9.839,32.7 54.962,-15.94 22.982,-145.377 19.609,-125.382 -258.43,-36.979"
         id="path6756"
          />
      <path
         d="m 239.083,780.661 -18.836,133.356 -1.475,11.556 36.617,3.582 0.703,-8.782 93.406,10.747 -2.25,28.312 -7.66,-1.503 -11.175,85.861 -124.19,-14.68 -5.412,37.33 -11.456,82.86 116.951,17.33 9.558,21.26 12.581,31.43 36.617,-13.17 9.84,-67.25 3.162,-21.15 44.419,-311.088 -181.4,-26.001"
         id="path6758"
          />
      <path
         d="m 52.2013,753.966 -8.0825,57.896 9.4179,506.148 -11.9481,-26.92 -31.382675,-100.42 26.030782,-2.66 -14.353389,-143.7064 46.764182,11.1564 6.466,-35.82 2.1085,1.62 14.2674,-99.732 -3.725,-0.693 3.3033,-25.077 129.1793,18.259 18.836,-133.356 -186.8817,-26.695"
         id="path6760"
         style="display:none;vector-effect:none;fill-rule:evenodd"
         sodipodi:nodetypes="cccccccccccccccc" />
      <path
         d="m 44.1188,811.862 v 0"
         id="path6762"
          />
      <path
         d="m 3324.29,1582.76 -75.56,73.72 26.29,110.71 162.14,93.14 -7.1,1.15 -20.87,-105.39 -32.82,-33.51 44.06,-42.52 -96.14,-97.3"
         id="path6764"
          />
      <path
         d="m 3402.58,1506.49 -78.29,76.27 96.14,97.3 43.44,-45.07 8.01,-110.82 -69.3,-17.68"
         id="path6766"
          />
      <path
         d="m 3474.48,257.749 -20.03,29.121 -153.43,-37.673 -117.37,-31.664 -80.75,-22.072 30.85,-117.757 7.1,-3.2357 4.64,-19.2988 -34.65,-8.8983 -4.36,12.0184 -45.75,-17.912 22.91,-60.67 203.68,54.0829 -32.19,119.9525 -6.4,-2.08 -6.11,23.922 43.22,1.04 41.47,11.44 24.67,7.165 17.08,-25.423 -5.7,-3.121 69.3,-92.5644 41.82,183.6274"
         id="path6768"
          />
      <path
         d="m 3432.66,74.1216 -36.05,-146.4169 24.25,-68.4127 11.8,214.8296"
         id="path6770"
         style="display:none;vector-effect:none;fill-rule:evenodd" />
      <path
         d="m 3059.32,617.952 -116.18,-28.313 -50.39,-12.711 18.91,-59.052 164.53,36.171 -1.69,10.978 29.59,6.587 49.62,-85.284 -221.95,-53.735 14.76,-60.323 57.84,13.983 327.8,86.555 -61.5,94.297 -62.41,90.715 -148.93,-39.868"
         id="path6772"
          />
      <path
         d="m 2787.96,941.751 101.63,23.921 71.48,20.57 12.44,-3.814 15.53,-7.742 78.93,-116.716 60.3,-81.585 54.19,-82.048 25.79,-36.517 -148.93,-39.868 -116.18,-28.313 -19.61,66.91 78.37,20.107 -0.42,12.365 9.06,6.125 -5.76,28.659 -16.8,2.542 -71.33,106.547 -92.85,-27.85 -35.84,136.707"
         id="path6774"
          />
      <path
         d="m 3454.45,286.87 -63.61,96.031 -58.68,89.907 -327.8,-86.555 57,-201.539 41.54,10.747 80.75,22.072 -5.76,22.188 5.34,2.427 -15.95,55.816 -7.81,-1.618 -16.44,68.875 74.29,14.791 61.49,-82.395 22.21,-48.42 153.43,37.673"
         id="path6776"
          />
      <path
         d="m 914.923,797.995 365.967,51.886 -1.06,21.263 60.8,11.903 22.28,6.702 16.09,30.624 1.55,50.961 1.54,160.856 -10.89,30.16 -94.95,142.14 3.58,17.22 -8.29,5.66 -18.14,-12.48 -28.53,48.31 20.24,14.56 -43.64,61.7 -21.23,-10.86 -100.22,161.44 20.8,13.4 -13,17.68 12.44,13.98 -97.69,150.58 -87.647,-987.685"
         id="path6778"
         style="display:none;vector-effect:none;fill-rule:evenodd" />
      <path
         d="m 1969.94,1597.78 2.04,-53.16 10.47,-20.68 247.96,-4.16 -1.06,-67.72 -93.12,-1.5 -46.04,-0.81 4.08,-75.69 -118.57,1.04 0.28,-61.71 -16.94,0.12 -144.36,0.34 1.48,91.99 0.84,50.03 6.82,145.61 146.12,-3.7"
         id="path6780"
          />
      <path
         d="m 1823.82,1601.48 146.12,-3.7 1.12,70.37 89.61,-2.65 217.39,-6.59 2.81,118.33 -150.62,39.06 -162.42,1.15 -144.01,-215.97"
         id="path6782"
          />
      <path
         d="m 2280.87,1777.24 369.97,0.35 96.43,-138.33 59.24,-13.86 8.51,36.4 9.98,42.99 15.04,-3.59 183.16,-44.95 -45.48,-185.01 -128.33,31.43 -88.98,22.08 -48.29,11.55 -111.61,167.91 -0.07,-18.95 -20.38,0.11 -0.42,-127.57 -171.42,0.57 0.28,81.01 h -13.63 l 0.07,18.49 -116.88,1.04 2.81,118.33"
         id="path6784"
          />
      <path
         d="m 1750.3,374.35 94.82,33.397 8.01,4.045 2.95,7.049 -4.08,8.782 -4.49,4.507 -75.91,119.49 -17.71,27.85 -15.75,24.73 -0.28,4.276 -4.99,3.236 -6.95,-1.156 -5.28,-4.738 -1.33,-9.476 3.16,-6.125 0.07,-55.007 0.14,-103.542 -1.54,-6.125 2.25,-7.627 4.77,-6.124 8.58,-28.544 -0.21,-5.2 2.74,-4.738 4.71,-2.543 4.99,1.387 1.33,2.196"
         id="path6786"
          />
      <path
         d="m 1285.73,1480.49 12.37,8.09 -48.77,74.42 -12.37,-8.09 48.77,-74.42"
         id="path6788"
          />
      <path
         d="m 2680.78,1336.73 -130.73,-34.09 35.49,-135.89 35.5,9.24 44.35,11.79 50.74,13.29 -35.35,135.66"
         id="path6790"
          />
      <path
         d="m 2365.63,1263.7 39.99,-147.92 95.37,26.58 84.55,24.39 -35.49,135.89 -22,88.41 -14.26,57.08 -78.72,0.93 38.09,-155.89 -107.53,-29.47"
         id="path6792"
          />
      <path
         d="m 3199.68,1666.65 -7.95,1.5 -13.28,-7.85 -61.22,-253.19 4.43,-21.73 11.88,-17.22 19.26,-11.44 29.59,-1.96 157.43,48.42 -140.14,263.47"
         id="path6794"
          />
      <path
         d="m 1737.37,1035.7 h 19.82 l 2.18,-34.2 25.02,-41.491 16.52,-14.213 19.04,-6.703 50.33,3.351 953.87,227.076 186.32,75.81 -13.49,19.76 32.68,20.22 9.84,29 19.75,75.35 -10.4,11.9 -17.64,2.08"
         id="path6796"
         style="display:none;vector-effect:none;fill-rule:evenodd"
         sodipodi:nodetypes="ccccccccccccccc" />
      <path
         d="m 1809.41,993.522 36.27,-28.775 36.47,9.939 100.79,29.124 39.43,12.48 47.02,12.02 62.55,16.75 -33.53,130.93 -139.09,-29.7 -0.28,167.22 -144.36,0.34 -3.58,-218.98 -1.69,-101.348"
         id="path6688"
          />
      <path
         d="m 841.758,187.719 18.977,59.283 -9.77,0.462 4.217,6.356 6.115,12.596 3.373,9.707 3.374,16.41 47.3,6.355 5.342,-47.38 -22.772,-80.777 -56.156,16.988"
         id="path6798"
          />
      <path
         d="m 739.075,74.8149 16.235,50.7311 -8.434,2.774 10.613,32.935 8.645,-2.08 14.97,46.802 60.654,-18.258 56.156,-16.988 7.942,-2.427 L 863.757,37.8352 739.075,74.8149"
         id="path6800"
          />
      <path
         d="m 913.236,318.303 -11.035,99.613 -4.568,41.602 108.097,-32.935 179.5,-54.66 2.32,-95.338 -44.07,-0.346 -1.26,18.605 -68.88,20.107 -14.41,-39.521 -145.694,42.873"
         id="path6802"
          />
      <path
         d="M -21.5956,138.374 11.6482,245.153 66.9607,228.165 28.024,107.057 112.293,82.9043 119.462,101.856 171.752,86.4867 133.589,-45.9471 -21.5956,138.374"
         id="path6804"
          />
      <path
         d="m 694.164,-69.8685 9.629,31.3173 35.282,113.3661 124.682,-36.9797 -15.533,-47.03365 12.089,-3.81355 -14.97,-43.1046 -11.808,2.3113 -15.251,-53.5057 -60.373,18.2592 -63.747,19.1833"
         id="path6806"
          />
      <path
         d="m 897.633,459.518 4.568,-41.602 -64.519,-9.36 v 5.894 l -91.579,-16.641 8.505,-19.415 10.683,-71.532 -5.764,-4.391 4.709,-24.846 21.577,-11.671 19.398,-7.974 18.625,-5.778 24.951,-4.623 2.178,-0.115 9.77,-0.462 -18.977,-59.283 -60.654,18.258 -63.746,19.183 -21.788,149.305 -21.577,148.034 213.379,29.583 10.261,-92.564"
         id="path6808"
          />
      <path
         d="m 887.372,552.082 424.928,59.398 6.75,-280.234 -128.48,38.944 -0.14,8.436 -0.84,28.89 -0.63,27.966 -6.05,0.462 1.2,39.175 -81.46,-11.787 -20.03,7.511 -6.75,0.809 -6.4,0.116 -6.53,-0.463 -6.4,-1.04 -6.46,-1.733 -6.05,-2.196 -6.04,-2.889 -5.62,-3.467 -5.28,-3.813 -4.92,-4.391 -4.49,-4.969 -3.94,-5.085 -3.44,-5.431 -2.89,-5.779 -1.68,-3.929 -108.097,32.935 -10.261,92.564"
         id="path6810"
          />
      <path
         d="m 207.175,-68.7128 27.199,93.2584 52.783,-16.75647 -28.254,-92.33393 -51.728,15.832"
         id="path6812"
          />
      <path
         d="m 1114.1,402.431 8.51,26.232 66.98,-21.147 0.84,-28.89 -76.33,23.805"
         id="path6814"
          />
      <path
         d="m 1046.28,35.524 7.17,33.6284 60.94,-13.2896 -7.17,-33.3973 -60.94,13.0585"
         id="path6816"
          />
      <path
         d="m 1000.25,145.192 16.79,50.385 67.97,-18.721 -10.26,-53.505 -74.5,21.841"
         id="path6818"
          />
      <path
         d="m 1003.62,82.9043 -21.718,7.0492 15.111,50.9625 22.347,-6.702 -15.74,-51.3097"
         id="path6820"
          />
      <path
         d="m 1125.77,102.203 -52.08,15.716 1.06,5.432 10.26,53.505 104.72,-12.712 1.47,-68.9902 -65.43,7.0492"
         id="path6822"
          />
      <path
         d="m 490.696,-74.6065 4.709,15.4853 20.101,66.44809 123.346,-37.90429 -6.326,-20.57 -18.765,-61.5946 -76.327,23.6902 -46.738,14.4453"
         id="path6824"
          />
      <path
         d="m 585.156,238.219 6.747,22.303 -11.456,83.435 38.515,3.467 9.207,-9.014 9.629,-71.301 -13.495,-38.944 -39.147,10.054"
         id="path6826"
          />
      <path
         d="m 1604.33,292.417 -10.12,211.823 -30.23,-1.386 -25.23,-1.156 1.62,-146.069 2.81,-64.714 21.11,-477.819 h 0.13 l 39.91,479.321"
         id="path6828"
          />
      <path
         d="m 1564.12,258.095 22.5,0.463 -0.5,24.845 -11.38,-0.115 -11.11,-0.347 0.49,-24.846"
         id="path6830"
          />
      <path
         d="m 1564.2,258.327 22.42,0.462 -0.43,24.73 -11.45,-0.231 -11.04,-0.116 0.5,-24.845"
         id="path6832"
          />
      <path
         d="m 1034.47,1875.93 26.22,-37.79 24.95,-22.88 22.84,-9.25 34.72,-12.01 30.15,4.73 188.01,55.47 24.39,16.06 -351.28,5.67"
         id="path6834"
          />
      <path
         d="m 218.42,1568.31 7.028,4.51 25.372,-41.14 -173.5277,-114.17 141.1277,150.8"
         id="path6836"
          />
      <path
         d="m 1168.57,1849.12 -14.26,4.85 14.26,-4.85"
         id="path6838"
          />
      <path
         d="m 121.078,1662.72 -33.173,56.74 44.77,27.97 33.455,-56.28 -45.052,-28.43"
         id="path6840"
          />
      <path
         d="m 614.253,1769.96 -3.514,-2.66 -49.479,-32.12 52.993,34.78"
         id="path6842"
          />
      <path
         d="m 445.855,1306.69 -26.567,42.52 187.234,120.3 26.285,-40.45 -43.926,-29.12 -143.026,-93.25"
         id="path6844"
          />
      <path
         d="m 250.82,1531.68 -25.372,41.14 -7.028,-4.51 -6.396,11.67 43.787,25.89 11.737,6.93 29.87,-50.61 -15.743,-10.63 -30.855,-19.88"
         id="path6846"
          />
      <path
         d="m 1291.43,692.488 104.16,-114.173 1.05,17.796 -26.64,1.04 -1.47,32.241 -3.73,15.948 -9.42,15.716 -14.68,9.36 h -48.15 l -1.12,22.072"
         id="path6848"
         style="display:none;vector-effect:none;fill-rule:evenodd" />
      <path
         d="m 2736.58,-48.9517 -51.8,139.9453 110.21,30.0464 35.91,4.16 48.5,-127.46474 -142.82,-46.68696"
         id="path6850"
          />
      <path
         d="m 2540.14,52.1648 144.64,38.8288 110.21,30.0464 -23.83,76.964 -104.65,-24.037 -11.1,39.868 11.94,15.601 -9.48,39.407 -17.22,-2.081 -14.76,43.451 -129.25,-29.121 43.92,-157.972 -16.79,-8.205 16.37,-62.7502"
         id="path6852"
          />
      <path
         d="m 2794.99,121.04 35.91,4.16 109.78,31.317 -109.85,396.836 -145.34,-33.743 85.67,-321.606 23.83,-76.964"
         id="path6854"
          />
      <path
         d="m 2563.12,359.327 -32.33,124.343 56.79,13.174 47.09,10.979 37.88,-146.069 -39.78,-8.667 -4.99,22.996 -64.66,-16.756"
         id="path6856"
          />
      <path
         d="m 2513.79,1448.13 117.16,-5.08 0.42,-54.55 -103.32,2.55 -14.26,57.08"
         id="path6858"
          />
    </g>
  </g>
</svg>
